<?xml version="1.0" encoding="UTF-8" standalone="no"?>
<!-- Generator: Adobe Illustrator 18.0.0, SVG Export Plug-In . SVG Version: 6.00 Build 0)  -->

<svg
   xmlns:dc="http://purl.org/dc/elements/1.1/"
   xmlns:cc="http://creativecommons.org/ns#"
   xmlns:rdf="http://www.w3.org/1999/02/22-rdf-syntax-ns#"
   xmlns:svg="http://www.w3.org/2000/svg"
   xmlns="http://www.w3.org/2000/svg"
   xmlns:sodipodi="http://sodipodi.sourceforge.net/DTD/sodipodi-0.dtd"
   xmlns:inkscape="http://www.inkscape.org/namespaces/inkscape"
   version="1.1"
   id="abc"
   x="0px"
   y="0px"
   width="105"
   height="135"
   viewBox="0 0 105 135"
   enable-background="new 0 0 255 255"
   xml:space="preserve"
   sodipodi:docname="A.svg"
   inkscape:version="0.92.3 (2405546, 2018-03-11)"><metadata
   id="metadata6447"><rdf:RDF><cc:Work
       rdf:about=""><dc:format>image/svg+xml</dc:format><dc:type
         rdf:resource="http://purl.org/dc/dcmitype/StillImage" /><dc:title></dc:title></cc:Work></rdf:RDF></metadata><defs
   id="defs6445" /><sodipodi:namedview
   pagecolor="#ffffff"
   bordercolor="#666666"
   borderopacity="1"
   objecttolerance="10"
   gridtolerance="10"
   guidetolerance="10"
   inkscape:pageopacity="0"
   inkscape:pageshadow="2"
   inkscape:window-width="1869"
   inkscape:window-height="1025"
   id="namedview6443"
   showgrid="true"
   inkscape:zoom="3.7019608"
   inkscape:cx="182.65918"
   inkscape:cy="90.250132"
   inkscape:window-x="1971"
   inkscape:window-y="27"
   inkscape:window-maximized="1"
   inkscape:current-layer="abc"><inkscape:grid
     type="xygrid"
     id="grid6449" /></sodipodi:namedview>
<polygon
   points="125.2,108.5 129.7,108.5 127.4,100.3 "
   id="polygon6418"
   transform="translate(-75.1,-61.1)"
   style="fill:none" />

<polygon
   points="129.7,108.5 125.2,108.5 123.7,114 131.1,114 "
   id="polygon6422"
   transform="translate(-75.1,-61.1)"
   style="fill:#00457c" />




<path
   d="m 43,75.6 v 0 c 0,-0.4 -0.1,-0.8 -0.3,-1.2 l -0.9,3.4 C 42.5,77.3 43,76.5 43,75.6 Z"
   id="path6432"
   inkscape:connector-curvature="0"
   style="fill:#00457c" />

<path
   d="m 10.1,90.6 v 0 c 0,0.8 0.3,1.5 0.9,2 l 1.4,-4.7 c -1.3,0.2 -2.3,1.4 -2.3,2.7 z"
   id="path6436"
   inkscape:connector-curvature="0"
   style="fill:#00457c" />

<path
   d="M 85.2,135 C 77.5,135 74.9,131.3 74,128.2 L 68.7,108.5 H 36.2 l -5.3,19.7 c -0.9,3.1 -3.5,6.8 -11.2,6.8 -4.4,0 -8.8,-1.2 -12.9,-3.6 -4.5,-2.6 -6.8,-6 -6.8,-9.9 0,-0.6 0.1,-1.3 0.4,-2.5 0,0 0,-0.1 0,-0.1 L 32.4,14 c 1.1,-3.6 3.7,-6.3 7.6,-8.2 3.6,-1.7 7.7,-2.6 12.3,-2.6 4.6,0 8.7,0.9 12.3,2.6 3.9,1.8 6.5,4.6 7.6,8.1 l 32.2,105 c 0,0 0,0.1 0,0.1 0.3,1.2 0.4,1.9 0.4,2.5 0,3.9 -2.3,7.3 -6.8,9.9 -4.1,2.3 -8.4,3.6 -12.8,3.6 z M 34.3,103.5 h 36.3 c 1.1,0 2.1,0.8 2.4,1.8 l 5.8,21.5 c 0.2,0.9 0.9,3.1 6.4,3.1 3.5,0 7,-1 10.3,-2.9 4.4,-2.5 4.4,-4.8 4.4,-5.6 0,0 0,-0.3 -0.3,-1.2 L 67.5,15.4 c -0.7,-2.2 -2.3,-3.8 -5,-5.1 -2.9,-1.4 -6.3,-2.1 -10.2,-2.1 -3.9,0 -7.3,0.7 -10.2,2.1 -2.6,1.3 -4.3,2.9 -5,5.1 l -32,104.8 c -0.2,0.9 -0.3,1.2 -0.3,1.3 0,0.7 0,3 4.4,5.6 3.3,1.9 6.8,2.9 10.3,2.9 5.5,0 6.1,-2.3 6.4,-3.2 l 5.8,-21.5 c 0.4,-1.1 1.4,-1.8 2.6,-1.8 z M 64.9,87.8 H 39.8 c -0.8,0 -1.5,-0.4 -2,-1 -0.5,-0.6 -0.6,-1.4 -0.4,-2.2 l 12.5,-46 c 0.3,-1.1 1.3,-1.8 2.4,-1.8 1.1,0 2.1,0.8 2.4,1.8 l 12.6,46.1 c 0.2,0.8 0,1.6 -0.4,2.2 -0.5,0.6 -1.2,0.9 -2,0.9 z M 43,82.8 H 61.6 L 52.3,48.7 Z"
   id="path6440"
   inkscape:connector-curvature="0"
   style="fill:#00457c" />
</svg>