<?xml version="1.0" encoding="UTF-8" standalone="no"?>
<!-- Generator: Adobe Illustrator 18.0.0, SVG Export Plug-In . SVG Version: 6.00 Build 0)  -->

<svg
   xmlns:dc="http://purl.org/dc/elements/1.1/"
   xmlns:cc="http://creativecommons.org/ns#"
   xmlns:rdf="http://www.w3.org/1999/02/22-rdf-syntax-ns#"
   xmlns:svg="http://www.w3.org/2000/svg"
   xmlns="http://www.w3.org/2000/svg"
   xmlns:sodipodi="http://sodipodi.sourceforge.net/DTD/sodipodi-0.dtd"
   xmlns:inkscape="http://www.inkscape.org/namespaces/inkscape"
   version="1.1"
   id="abc"
   x="0px"
   y="0px"
   width="105"
   height="135"
   viewBox="0 0 105 135"
   enable-background="new 0 0 255 255"
   xml:space="preserve"
   sodipodi:docname="B.svg"
   inkscape:version="0.92.3 (2405546, 2018-03-11)"><metadata
   id="metadata6528"><rdf:RDF><cc:Work
       rdf:about=""><dc:format>image/svg+xml</dc:format><dc:type
         rdf:resource="http://purl.org/dc/dcmitype/StillImage" /><dc:title></dc:title></cc:Work></rdf:RDF></metadata><defs
   id="defs6526" /><sodipodi:namedview
   pagecolor="#ffffff"
   bordercolor="#666666"
   borderopacity="1"
   objecttolerance="10"
   gridtolerance="10"
   guidetolerance="10"
   inkscape:pageopacity="0"
   inkscape:pageshadow="2"
   inkscape:window-width="1869"
   inkscape:window-height="1025"
   id="namedview6524"
   showgrid="false"
   inkscape:zoom="2.6176816"
   inkscape:cx="167.55334"
   inkscape:cy="14.87652"
   inkscape:window-x="1971"
   inkscape:window-y="27"
   inkscape:window-maximized="1"
   inkscape:current-layer="abc" />


<path
   d="m 49.5,74.899998 c 0.3,0.1 0.6,0.2 1,0.2 -0.3,-0.1 -0.6,-0.1 -1,-0.2 z"
   id="path6509"
   inkscape:connector-curvature="0"
   style="fill:#00457c" />
<path
   d="m 82.5,73.699998 c 0,0 0,0.1 0.1,0.1 0.2,-0.4 0.4,-0.8 0.4,-1.3 v -0.2 c 0,-1.5 -1.2,-2.6 -2.6,-2.6 h -1.7 c 1.4,1.2 2.7,2.5 3.8,4 z"
   id="path6511"
   inkscape:connector-curvature="0"
   style="fill:#00457c" />


<line
   x1="112.90001"
   y1="118.2"
   x2="112.90001"
   y2="118.2"
   id="line6517"
   style="fill:none;stroke:#00457c;stroke-width:0;stroke-linecap:round;stroke-linejoin:round" />

<path
   d="M 52.4,135 H 14.2 c -4.1,0 -7.5,-1 -10,-2.9 C 0.8,129.5 0,126.5 0,124.4 V 14.999998 c 0,-3.5 1.6,-6.3000004 4.6,-8.2000004 2.7000001,-1.7 5.9,-2.5 9.6,-2.5 h 35.3 c 24.1,0 36.9,11.5000004 36.9,33.1000004 0,12.5 -3.9,21.5 -11.5,26.8 4,2.1 7.3,4.9 9.7,8.1 3.3,4.5 5,11.1 5,19.6 v 3.6 C 89.6,109 86.2,119.1 79.4,125.4 72.6,131.7 63.5,135 52.4,135 Z M 14.2,9.1999976 c -2.7,0 -5.0999999,0.6 -6.8999999,1.8000004 C 5.7,11.999998 5,13.199998 5,14.999998 V 124.4 c 0,0.9 0.2,2.2 2.2000001,3.7 1.7,1.3 3.9999999,1.9 6.9999999,1.9 h 38.2 c 9.8,0 17.7,-2.8 23.5,-8.2 5.7,-5.4 8.6,-14.2 8.6,-26.300002 v -3.6 c 0,-7.4 -1.3,-13.1 -4,-16.7 -2.7,-3.7 -6.7,-6.5 -12.1,-8.5 -1,-0.4 -1.6,-1.3 -1.6,-2.3 0,-1 0.6,-2 1.5,-2.4 8.8,-3.8 13.1,-11.9 13.1,-24.7 0,-18.9 -10.4,-28.1000004 -31.9,-28.1000004 z M 46.4,111.6 H 29.2 c -1.4,0 -2.5,-1.1 -2.5,-2.5 V 74.699998 c 0,-1.4 1.1,-2.5 2.5,-2.5 h 17.2 c 7.4,0 16.3,3.2 16.3,18.3 v 2.8 C 62.6,108.4 53.8,111.6 46.4,111.6 Z m -14.7,-5 h 14.7 c 7.8,0 11.3,-4.1 11.3,-13.300002 v -2.8 c 0,-9.2 -3.5,-13.3 -11.3,-13.3 H 31.7 Z M 47.2,56.499998 H 29.1 c -1.4,0 -2.5,-1.1 -2.5,-2.5 v -23.9 c 0,-1.4 1.1,-2.5 2.5,-2.5 h 18.1 c 3.9,0 7.1,1.6 9.3,4.7 2,2.8 3,6.2 3,9.9 0,3.7 -1,7 -3.1,9.8 -2.1,2.9 -5.3,4.5 -9.2,4.5 z m -15.5,-5 h 15.6 c 2.3,0 4,-0.8 5.2,-2.5 1.4,-1.9 2.1,-4.2 2.1,-6.9 0,-2.7 -0.7,-5 -2.1,-7 -1.3,-1.7 -2.9,-2.6 -5.2,-2.6 H 31.7 Z"
   id="path6521"
   inkscape:connector-curvature="0"
   style="fill:#00457c" />
</svg>