<?xml version="1.0" encoding="UTF-8" standalone="no"?>
<!-- Generator: Adobe Illustrator 18.0.0, SVG Export Plug-In . SVG Version: 6.00 Build 0)  -->

<svg
   xmlns:dc="http://purl.org/dc/elements/1.1/"
   xmlns:cc="http://creativecommons.org/ns#"
   xmlns:rdf="http://www.w3.org/1999/02/22-rdf-syntax-ns#"
   xmlns:svg="http://www.w3.org/2000/svg"
   xmlns="http://www.w3.org/2000/svg"
   xmlns:sodipodi="http://sodipodi.sourceforge.net/DTD/sodipodi-0.dtd"
   xmlns:inkscape="http://www.inkscape.org/namespaces/inkscape"
   version="1.1"
   id="abc"
   x="0px"
   y="0px"
   width="105"
   height="135"
   viewBox="0 0 105 135"
   enable-background="new 0 0 255 255"
   xml:space="preserve"
   sodipodi:docname="C.svg"
   inkscape:version="0.92.3 (2405546, 2018-03-11)"><metadata
   id="metadata6660"><rdf:RDF><cc:Work
       rdf:about=""><dc:format>image/svg+xml</dc:format><dc:type
         rdf:resource="http://purl.org/dc/dcmitype/StillImage" /><dc:title></dc:title></cc:Work></rdf:RDF></metadata><defs
   id="defs6658" /><sodipodi:namedview
   pagecolor="#ffffff"
   bordercolor="#666666"
   borderopacity="1"
   objecttolerance="10"
   gridtolerance="10"
   guidetolerance="10"
   inkscape:pageopacity="0"
   inkscape:pageshadow="2"
   inkscape:window-width="1869"
   inkscape:window-height="1025"
   id="namedview6656"
   showgrid="false"
   inkscape:zoom="2.6"
   inkscape:cx="133.58275"
   inkscape:cy="59.881899"
   inkscape:window-x="1971"
   inkscape:window-y="27"
   inkscape:window-maximized="1"
   inkscape:current-layer="abc" />




<path
   d="M 43.8,135 C 31,135 20.4,131.5 12.3,124.6 4.1,117.6 0,106.6 0,91.9 V 46.3 C 0,31.6 4.1,20.6 12.3,13.6 20.4,6.7 30.9,3.2 43.8,3.2 c 13.1,0 24.1,3.2 32.5,9.6 8.7,6.5 13.1,15.7 13.1,27.1 0,5.8 -1.3,9.7 -4,12 -2.6,2.2 -6.5,3.3 -12,3.3 -12.6,0 -15.6,-5.7 -15.9,-10.4 -0.3,-9.1 -4.3,-13.1 -12.8,-13.1 -8.9,0 -13,4.7 -13,14.7 v 45.5 c 0,10 4.2,14.7 13.2,14.7 2.8,0 5.1,-0.4 6.9,-1.3 1.6,-0.8 2.7,-1.9 3.4,-3.5 0.8,-2 1.4,-3.6 1.7,-4.8 0.3,-1.3 0.5,-3.1 0.7,-5.4 0.4,-4.7 3.5,-10.3 15.7,-10.3 5.6,0 9.6,1.1 12.1,3.3 2.7,2.3 4,6.2 4,12 0,11.9 -4.4,21.4 -13.1,28.3 C 67.9,131.6 56.9,135 43.8,135 Z M 43.8,8.2 C 32.2,8.2 22.7,11.3 15.6,17.4 8.6,23.4 5,33.1 5,46.3 v 45.6 c 0,13.2 3.6,22.9 10.6,28.9 7.1,6.1 16.6,9.2 28.2,9.2 12,0 21.9,-3.1 29.5,-9.1 7.5,-6 11.2,-13.9 11.2,-24.4 0,-4.1 -0.8,-6.9 -2.2,-8.2 -1.1,-0.9 -3.5,-2.1 -8.9,-2.1 -10.3,0 -10.6,4.2 -10.8,5.8 -0.2,2.6 -0.5,4.5 -0.8,6 -0.3,1.6 -1,3.4 -2,5.7 -1.2,2.7 -3.1,4.7 -5.8,6 -2.5,1.2 -5.5,1.8 -9.1,1.8 -8.3,0 -18.2,-3.4 -18.2,-19.7 V 46.2 c 0,-16.3 9.8,-19.7 18,-19.7 11.3,0 17.4,6.2 17.8,17.9 0.1,1.5 0.4,5.7 10.9,5.7 4.1,0 7.1,-0.7 8.7,-2.1 1.5,-1.3 2.2,-4.1 2.2,-8.2 C 84.3,29.9 80.7,22.3 73.2,16.7 65.7,11.1 55.8,8.2 43.8,8.2 Z"
   id="path6651"
   inkscape:connector-curvature="0"
   style="fill:#00457c" />

</svg>