<?xml version="1.0" encoding="UTF-8" standalone="no"?>
<!-- Generator: Adobe Illustrator 18.0.0, SVG Export Plug-In . SVG Version: 6.00 Build 0)  -->

<svg
   xmlns:dc="http://purl.org/dc/elements/1.1/"
   xmlns:cc="http://creativecommons.org/ns#"
   xmlns:rdf="http://www.w3.org/1999/02/22-rdf-syntax-ns#"
   xmlns:svg="http://www.w3.org/2000/svg"
   xmlns="http://www.w3.org/2000/svg"
   xmlns:sodipodi="http://sodipodi.sourceforge.net/DTD/sodipodi-0.dtd"
   xmlns:inkscape="http://www.inkscape.org/namespaces/inkscape"
   version="1.1"
   id="abc"
   x="0px"
   y="0px"
   width="105"
   height="135"
   viewBox="0 0 105 135"
   enable-background="new 0 0 255 255"
   xml:space="preserve"
   sodipodi:docname="D.svg"
   inkscape:version="0.92.3 (2405546, 2018-03-11)"><metadata
   id="metadata6874"><rdf:RDF><cc:Work
       rdf:about=""><dc:format>image/svg+xml</dc:format><dc:type
         rdf:resource="http://purl.org/dc/dcmitype/StillImage" /><dc:title /></cc:Work></rdf:RDF></metadata><defs
   id="defs6872" /><sodipodi:namedview
   pagecolor="#ffffff"
   bordercolor="#666666"
   borderopacity="1"
   objecttolerance="10"
   gridtolerance="10"
   guidetolerance="10"
   inkscape:pageopacity="0"
   inkscape:pageshadow="2"
   inkscape:window-width="1920"
   inkscape:window-height="1052"
   id="namedview6870"
   showgrid="false"
   inkscape:zoom="1.85"
   inkscape:cx="178.32568"
   inkscape:cy="155.43418"
   inkscape:window-x="0"
   inkscape:window-y="0"
   inkscape:window-maximized="1"
   inkscape:current-layer="abc" />
<path
   d="M 44.7,135 H 14.2 c -4,0 -7.3,-1 -9.9,-2.9 C 0.8,129.5 0,126.5 0,124.4 V 14.8 C 0,12.7 0.7,9.7 4.3,7.1 6.9,5.2 10.2,4.2 14.2,4.2 h 30.4 c 13.4,0 24.3,3.5 32.4,10.4 8.2,7 12.4,18 12.4,32.7 v 44.6 c 0,14.7 -4.2,25.7 -12.4,32.7 C 69,131.5 58.1,135 44.7,135 Z M 14.2,9.2 C 11.3,9.2 9,9.8 7.3,11.1 5.3,12.6 5,13.9 5,14.8 v 109.6 c 0,0.9 0.2,2.2 2.3,3.7 1.7,1.3 4.1,1.9 6.9,1.9 h 30.4 c 12.2,0 22,-3.1 29.2,-9.2 7.1,-6 10.6,-15.7 10.6,-28.9 V 47.4 C 84.4,34.2 80.8,24.5 73.8,18.5 66.6,12.4 56.8,9.3 44.6,9.3 H 14.2 Z M 44.7,111.6 H 29.4 c -1.4,0 -2.5,-1.1 -2.5,-2.5 v -79 c 0,-1.4 1.1,-2.5 2.5,-2.5 h 15.3 c 8.2,0 18,3.4 18,19.7 v 44.6 c 0,16.2 -9.8,19.7 -18,19.7 z m -12.8,-5 h 12.8 c 8.9,0 13,-4.7 13,-14.7 V 47.4 c 0,-10 -4.1,-14.7 -13,-14.7 H 31.9 Z"
   id="path6851"
   inkscape:connector-curvature="0"
   style="fill:#00457c" />








</svg>