<?xml version="1.0" encoding="UTF-8" standalone="no"?>
<!-- Generator: Adobe Illustrator 18.0.0, SVG Export Plug-In . SVG Version: 6.00 Build 0)  -->

<svg
   xmlns:dc="http://purl.org/dc/elements/1.1/"
   xmlns:cc="http://creativecommons.org/ns#"
   xmlns:rdf="http://www.w3.org/1999/02/22-rdf-syntax-ns#"
   xmlns:svg="http://www.w3.org/2000/svg"
   xmlns="http://www.w3.org/2000/svg"
   xmlns:sodipodi="http://sodipodi.sourceforge.net/DTD/sodipodi-0.dtd"
   xmlns:inkscape="http://www.inkscape.org/namespaces/inkscape"
   version="1.1"
   id="abc"
   x="0px"
   y="0px"
   width="105"
   height="135"
   viewBox="0 0 105 135"
   enable-background="new 0 0 255 255"
   xml:space="preserve"
   sodipodi:docname="F.svg"
   inkscape:version="0.92.3 (2405546, 2018-03-11)"><metadata
   id="metadata7353"><rdf:RDF><cc:Work
       rdf:about=""><dc:format>image/svg+xml</dc:format><dc:type
         rdf:resource="http://purl.org/dc/dcmitype/StillImage" /><dc:title></dc:title></cc:Work></rdf:RDF></metadata><defs
   id="defs7351" /><sodipodi:namedview
   pagecolor="#ffffff"
   bordercolor="#666666"
   borderopacity="1"
   objecttolerance="10"
   gridtolerance="10"
   guidetolerance="10"
   inkscape:pageopacity="0"
   inkscape:pageshadow="2"
   inkscape:window-width="681"
   inkscape:window-height="480"
   id="namedview7349"
   showgrid="false"
   inkscape:zoom="2.62"
   inkscape:cx="131.63359"
   inkscape:cy="63.858838"
   inkscape:window-x="0"
   inkscape:window-y="0"
   inkscape:window-maximized="0"
   inkscape:current-layer="abc" />
<path
   d="M 16,135 C 11.9,135 8.3,134.2 5.3,132.5 1,130.1 0,126.7 0,124.2 V 15 C 0,11.5 1.6,8.7 4.6,6.8 7.3,5.1 10.5,4.3 14.2,4.3 h 59.7 c 3.5,0 6.3,1.6 8.2,4.7 1.6,2.7 2.4,5.8 2.4,9.4 0,3.8 -0.9,7.1 -2.5,9.8 -1.9,3 -4.7,4.6 -8.1,4.6 h -42 v 24.1 h 23.5 c 3.3,0 6.1,1.4 8,4.2 1.7,2.5 2.6,5.5 2.6,8.8 0,3.1 -0.8,6 -2.5,8.4 -1.8,2.8 -4.6,4.2 -8.1,4.2 H 31.9 v 41.9 c 0,2.5 -0.9,5.9 -5.3,8.3 -2.9,1.4 -6.5,2.3 -10.6,2.3 z M 14.3,9.2 C 11.6,9.2 9.2,9.8 7.4,11 5.8,12 5.1,13.2 5.1,15 v 109.2 c 0,1.2 0.3,2.6 2.6,3.9 2.3,1.2 5,1.8 8.3,1.8 3.2,0 6,-0.6 8.3,-1.8 2.3,-1.3 2.7,-2.8 2.7,-3.9 V 79.8 c 0,-1.4 1.1,-2.5 2.5,-2.5 h 26 c 1.8,0 3,-0.6 3.9,-2 1.1,-1.7 1.6,-3.5 1.6,-5.7 0,-2.4 -0.6,-4.3 -1.7,-6 -1,-1.4 -2.2,-2 -3.9,-2 h -26 c -1.4,0 -2.5,-1.1 -2.5,-2.5 v -29 c 0,-1.4 1.1,-2.5 2.5,-2.5 h 44.5 c 1.7,0 2.8,-0.7 3.8,-2.3 1.2,-1.9 1.8,-4.3 1.8,-7.1 0,-2.7 -0.6,-4.9 -1.7,-6.8 C 76.9,9.9 75.7,9.2 73.9,9.2 Z"
   id="path7326"
   inkscape:connector-curvature="0"
   style="fill:#00457c" />










</svg>