<?xml version="1.0" encoding="UTF-8" standalone="no"?>
<!-- Generator: Adobe Illustrator 18.0.0, SVG Export Plug-In . SVG Version: 6.00 Build 0)  -->

<svg
   xmlns:dc="http://purl.org/dc/elements/1.1/"
   xmlns:cc="http://creativecommons.org/ns#"
   xmlns:rdf="http://www.w3.org/1999/02/22-rdf-syntax-ns#"
   xmlns:svg="http://www.w3.org/2000/svg"
   xmlns="http://www.w3.org/2000/svg"
   xmlns:sodipodi="http://sodipodi.sourceforge.net/DTD/sodipodi-0.dtd"
   xmlns:inkscape="http://www.inkscape.org/namespaces/inkscape"
   version="1.1"
   id="abc"
   x="0px"
   y="0px"
   width="105"
   height="135"
   viewBox="0 0 105 135"
   enable-background="new 0 0 255 255"
   xml:space="preserve"
   sodipodi:docname="G.svg"
   inkscape:version="0.92.3 (2405546, 2018-03-11)"><metadata
   id="metadata7584"><rdf:RDF><cc:Work
       rdf:about=""><dc:format>image/svg+xml</dc:format><dc:type
         rdf:resource="http://purl.org/dc/dcmitype/StillImage" /><dc:title></dc:title></cc:Work></rdf:RDF></metadata><defs
   id="defs7582" /><sodipodi:namedview
   pagecolor="#ffffff"
   bordercolor="#666666"
   borderopacity="1"
   objecttolerance="10"
   gridtolerance="10"
   guidetolerance="10"
   inkscape:pageopacity="0"
   inkscape:pageshadow="2"
   inkscape:window-width="681"
   inkscape:window-height="480"
   id="namedview7580"
   showgrid="false"
   inkscape:zoom="0.9254902"
   inkscape:cx="127.5"
   inkscape:cy="127.5"
   inkscape:window-x="0"
   inkscape:window-y="0"
   inkscape:window-maximized="0"
   inkscape:current-layer="abc" />
<path
   d="M 44.6,135 C 31.3,135 20.5,131.5 12.4,124.6 4.2,117.6 0,106.6 0,91.9 V 46.3 C 0,31.6 4.1,20.6 12.3,13.6 20.4,6.7 30.9,3.2 43.8,3.2 c 13.1,0 24.1,3.2 32.5,9.6 8.7,6.5 13.1,15.7 13.1,27.1 0,5.8 -1.3,9.7 -4,12 -2.6,2.2 -6.5,3.3 -12,3.3 -13,0 -15.8,-5.7 -15.9,-10.5 0,-1.5 -0.1,-2.8 -0.2,-3.8 -0.1,-0.9 -0.4,-2 -0.9,-3.5 -0.4,-1.2 -1,-2.1 -1.7,-2.8 -0.8,-0.7 -2.1,-1.4 -3.8,-2 -1.7,-0.6 -3.8,-1 -6.3,-1 -8.9,0 -13,4.7 -13,14.7 v 45.6 c 0,10.2 4,14.7 12.8,14.7 8.9,0 13,-4.7 13,-14.7 v -3.3 h -7.6 c -3.3,0 -6.1,-1.4 -8,-4.1 -1.7,-2.4 -2.6,-5.4 -2.6,-8.8 0,-3.1 0.9,-6 2.7,-8.6 1.9,-2.8 4.7,-4.2 7.9,-4.2 h 28.9 c 3.3,0 5.9,1.1 7.8,3.4 1.8,2.1 2.8,4.7 2.8,7.6 v 18 c 0,14.7 -4.2,25.7 -12.4,32.7 C 68.9,131.5 58,135 44.6,135 Z M 43.7,8.2 c -11.6,0 -21.1,3.1 -28.2,9.2 -7,6 -10.6,15.7 -10.6,28.9 v 45.6 c 0,13.2 3.6,22.9 10.6,28.9 7.2,6.1 16.9,9.2 29,9.2 12.2,0 22,-3.1 29.2,-9.2 7.1,-6 10.6,-15.7 10.6,-28.9 V 73.8 c 0,-1.7 -0.5,-3.1 -1.5,-4.3 -1,-1.1 -2.2,-1.6 -4,-1.6 H 49.9 c -1.6,0 -2.8,0.7 -3.8,2.1 -1.2,1.7 -1.8,3.6 -1.8,5.7 0,2.4 0.6,4.3 1.7,5.9 1,1.4 2.2,2 3.9,2 H 60 c 1.4,0 2.5,1.1 2.5,2.5 v 5.8 c 0,16.3 -9.8,19.7 -18,19.7 -8.1,0 -17.8,-3.4 -17.8,-19.7 V 46.3 c 0,-16.3 9.8,-19.7 18,-19.7 3,0 5.7,0.4 8,1.3 2.3,0.9 4.1,1.8 5.3,3 1.3,1.2 2.4,2.8 3.1,4.8 0.6,1.8 1,3.3 1.2,4.6 0.1,1.2 0.2,2.6 0.2,4.3 0,1.5 0.1,5.6 10.9,5.6 4.1,0 7.1,-0.7 8.7,-2.1 1.5,-1.3 2.2,-4.1 2.2,-8.2 C 84.3,30 80.7,22.4 73.2,16.8 65.7,11.1 55.7,8.2 43.7,8.2 Z"
   id="path7561"
   inkscape:connector-curvature="0"
   style="fill:#00457c" />








</svg>