<?xml version="1.0" encoding="UTF-8" standalone="no"?>
<!-- Generator: Adobe Illustrator 18.0.0, SVG Export Plug-In . SVG Version: 6.00 Build 0)  -->

<svg
   xmlns:dc="http://purl.org/dc/elements/1.1/"
   xmlns:cc="http://creativecommons.org/ns#"
   xmlns:rdf="http://www.w3.org/1999/02/22-rdf-syntax-ns#"
   xmlns:svg="http://www.w3.org/2000/svg"
   xmlns="http://www.w3.org/2000/svg"
   xmlns:sodipodi="http://sodipodi.sourceforge.net/DTD/sodipodi-0.dtd"
   xmlns:inkscape="http://www.inkscape.org/namespaces/inkscape"
   version="1.1"
   id="abc"
   x="0px"
   y="0px"
   width="105"
   height="135"
   viewBox="0 0 105 135"
   enable-background="new 0 0 255 255"
   xml:space="preserve"
   sodipodi:docname="H.svg"
   inkscape:version="0.92.3 (2405546, 2018-03-11)"><metadata
   id="metadata7660"><rdf:RDF><cc:Work
       rdf:about=""><dc:format>image/svg+xml</dc:format><dc:type
         rdf:resource="http://purl.org/dc/dcmitype/StillImage" /><dc:title></dc:title></cc:Work></rdf:RDF></metadata><defs
   id="defs7658" /><sodipodi:namedview
   pagecolor="#ffffff"
   bordercolor="#666666"
   borderopacity="1"
   objecttolerance="10"
   gridtolerance="10"
   guidetolerance="10"
   inkscape:pageopacity="0"
   inkscape:pageshadow="2"
   inkscape:window-width="681"
   inkscape:window-height="480"
   id="namedview7656"
   showgrid="false"
   inkscape:zoom="0.9254902"
   inkscape:cx="127.5"
   inkscape:cy="127.5"
   inkscape:window-x="0"
   inkscape:window-y="0"
   inkscape:window-maximized="0"
   inkscape:current-layer="abc" />
<path
   d="m 77.2,135 c -4.1,0 -7.7,-0.8 -10.7,-2.5 -4.3,-2.4 -5.3,-5.8 -5.3,-8.3 V 80.1 H 32 v 44.1 c 0,2.5 -0.9,5.9 -5.3,8.3 -3,1.6 -6.6,2.5 -10.7,2.5 -4.1,0 -7.7,-0.8 -10.7,-2.5 C 1,130.1 0,126.7 0,124.2 V 14.8 c 0,-2.5 0.9,-6 5.3,-8.2 3,-1.6 6.6,-2.3 10.6,-2.3 4.1,0 7.6,0.8 10.6,2.3 4.4,2.3 5.3,5.7 5.3,8.2 V 54.4 H 61 V 14.8 c 0,-2.5 0.9,-6 5.3,-8.2 3,-1.6 6.6,-2.3 10.6,-2.3 4.1,0 7.6,0.8 10.6,2.3 4.4,2.3 5.3,5.7 5.3,8.2 v 109.4 c 0,2.5 -0.9,5.9 -5.3,8.3 -2.6,1.6 -6.2,2.5 -10.3,2.5 z M 29.6,75.1 h 34.2 c 1.4,0 2.5,1.1 2.5,2.5 v 46.6 c 0,1.2 0.3,2.6 2.6,3.9 2.3,1.2 5,1.8 8.3,1.8 3.2,0 6,-0.6 8.3,-1.8 2.3,-1.3 2.6,-2.8 2.6,-3.9 V 14.8 c 0,-1.1 -0.3,-2.6 -2.6,-3.8 -2.3,-1.2 -5.1,-1.8 -8.3,-1.8 -3.2,0 -6,0.6 -8.3,1.8 -2.3,1.2 -2.6,2.7 -2.6,3.8 v 42.1 c 0,1.4 -1.1,2.5 -2.5,2.5 H 29.6 c -1.4,0 -2.5,-1.1 -2.5,-2.5 V 14.8 C 27.1,13.7 26.8,12.2 24.5,11 22.2,9.8 19.4,9.2 16.2,9.2 13,9.2 10.2,9.8 7.9,11 5.6,12.2 5.3,13.7 5.3,14.8 v 109.4 c 0,1.2 0.3,2.6 2.6,3.9 2.3,1.2 5,1.8 8.3,1.8 3.2,0 6,-0.6 8.3,-1.8 2.3,-1.3 2.7,-2.8 2.7,-3.9 V 77.6 c -0.1,-1.4 1,-2.5 2.4,-2.5 z"
   id="path7641"
   inkscape:connector-curvature="0"
   style="fill:#00457c" />






</svg>