<?xml version="1.0" encoding="UTF-8" standalone="no"?>
<!-- Generator: Adobe Illustrator 18.0.0, SVG Export Plug-In . SVG Version: 6.00 Build 0)  -->

<svg
   xmlns:dc="http://purl.org/dc/elements/1.1/"
   xmlns:cc="http://creativecommons.org/ns#"
   xmlns:rdf="http://www.w3.org/1999/02/22-rdf-syntax-ns#"
   xmlns:svg="http://www.w3.org/2000/svg"
   xmlns="http://www.w3.org/2000/svg"
   xmlns:sodipodi="http://sodipodi.sourceforge.net/DTD/sodipodi-0.dtd"
   xmlns:inkscape="http://www.inkscape.org/namespaces/inkscape"
   version="1.1"
   id="abc"
   x="0px"
   y="0px"
   width="40"
   height="135"
   viewBox="0 0 40 135"
   enable-background="new 0 0 255 255"
   xml:space="preserve"
   sodipodi:docname="I.svg"
   inkscape:version="0.92.3 (2405546, 2018-03-11)"><metadata
   id="metadata7835"><rdf:RDF><cc:Work
       rdf:about=""><dc:format>image/svg+xml</dc:format><dc:type
         rdf:resource="http://purl.org/dc/dcmitype/StillImage" /><dc:title></dc:title></cc:Work></rdf:RDF></metadata><defs
   id="defs7833" /><sodipodi:namedview
   pagecolor="#ffffff"
   bordercolor="#666666"
   borderopacity="1"
   objecttolerance="10"
   gridtolerance="10"
   guidetolerance="10"
   inkscape:pageopacity="0"
   inkscape:pageshadow="2"
   inkscape:window-width="681"
   inkscape:window-height="480"
   id="namedview7831"
   showgrid="false"
   inkscape:zoom="1.8509804"
   inkscape:cx="110.29637"
   inkscape:cy="102.01649"
   inkscape:window-x="0"
   inkscape:window-y="0"
   inkscape:window-maximized="0"
   inkscape:current-layer="abc" />
<path
   d="M 16,135 C 11.9,135 8.3,134.2 5.3,132.5 1,130.1 0,126.7 0,124.2 V 14.8 c 0,-2.5 0.9,-6 5.3,-8.2 3,-1.6 6.6,-2.3 10.6,-2.3 4.1,0 7.6,0.8 10.6,2.3 4.4,2.3 5.3,5.7 5.3,8.2 v 109.4 c 0,2.5 -0.9,5.9 -5.3,8.3 -2.8,1.6 -6.4,2.5 -10.5,2.5 z M 16,9.2 c -3.2,0 -6,0.6 -8.3,1.8 -2.3,1.2 -2.6,2.7 -2.6,3.8 v 109.4 c 0,1.2 0.3,2.6 2.6,3.9 2.3,1.2 5,1.8 8.3,1.8 3.2,0 6,-0.6 8.3,-1.8 2.3,-1.3 2.7,-2.8 2.7,-3.9 V 14.8 C 27,13.7 26.7,12.2 24.4,11 22,9.8 19.2,9.2 16,9.2 Z"
   id="path7818"
   inkscape:connector-curvature="0"
   style="fill:#00457c" />





</svg>