<?xml version="1.0" encoding="UTF-8" standalone="no"?>
<!-- Generator: Adobe Illustrator 18.0.0, SVG Export Plug-In . SVG Version: 6.00 Build 0)  -->

<svg
   xmlns:dc="http://purl.org/dc/elements/1.1/"
   xmlns:cc="http://creativecommons.org/ns#"
   xmlns:rdf="http://www.w3.org/1999/02/22-rdf-syntax-ns#"
   xmlns:svg="http://www.w3.org/2000/svg"
   xmlns="http://www.w3.org/2000/svg"
   xmlns:sodipodi="http://sodipodi.sourceforge.net/DTD/sodipodi-0.dtd"
   xmlns:inkscape="http://www.inkscape.org/namespaces/inkscape"
   version="1.1"
   id="abc"
   x="0px"
   y="0px"
   width="105"
   height="135"
   viewBox="0 0 105 135"
   enable-background="new 0 0 255 255"
   xml:space="preserve"
   sodipodi:docname="J.svg"
   inkscape:version="0.92.3 (2405546, 2018-03-11)"><metadata
   id="metadata8289"><rdf:RDF><cc:Work
       rdf:about=""><dc:format>image/svg+xml</dc:format><dc:type
         rdf:resource="http://purl.org/dc/dcmitype/StillImage" /><dc:title></dc:title></cc:Work></rdf:RDF></metadata><defs
   id="defs8287" /><sodipodi:namedview
   pagecolor="#ffffff"
   bordercolor="#666666"
   borderopacity="1"
   objecttolerance="10"
   gridtolerance="10"
   guidetolerance="10"
   inkscape:pageopacity="0"
   inkscape:pageshadow="2"
   inkscape:window-width="681"
   inkscape:window-height="480"
   id="namedview8285"
   showgrid="false"
   inkscape:zoom="0.9254902"
   inkscape:cx="127.5"
   inkscape:cy="127.5"
   inkscape:window-x="0"
   inkscape:window-y="0"
   inkscape:window-maximized="0"
   inkscape:current-layer="abc" />
<path
   d="M 45.7,135 C 32.6,135 21.6,131.6 13.1,124.8 4.4,117.9 0,108.4 0,96.5 c 0,-5.7 1.3,-9.7 4,-12 2.6,-2.2 6.5,-3.3 12.1,-3.3 12.3,0 15.3,5.6 15.7,10.4 0.2,2.3 0.5,4.1 0.7,5.4 0.2,1.2 0.8,2.8 1.7,4.8 0.7,1.6 1.8,2.7 3.4,3.5 1.8,0.9 4.1,1.3 6.9,1.3 9,0 13.2,-4.7 13.2,-14.7 V 31.6 H 45.2 C 41.8,31.6 39,30 37.1,27 c -1.7,-2.7 -2.5,-6 -2.5,-9.8 0,-3.5 0.8,-6.7 2.4,-9.4 1.8,-3 4.7,-4.7 8.2,-4.7 h 30.1 c 3.7,0 6.9,0.9 9.6,2.5 3,1.9 4.6,4.7 4.6,8.2 v 78.1 c 0,14.7 -4.1,25.7 -12.3,32.7 C 69.1,131.5 58.5,135 45.7,135 Z M 16.1,86.3 c -5.3,0 -7.8,1.1 -8.9,2.1 C 5.7,89.7 5,92.5 5,96.6 5,107 8.7,115 16.2,121 c 7.6,6 17.5,9.1 29.5,9.1 11.6,0 21.1,-3.1 28.2,-9.2 7,-6 10.6,-15.7 10.6,-28.9 V 14 c 0,-1.8 -0.7,-3 -2.3,-4 C 80.3,8.8 78,8.2 75.3,8.2 H 45.2 c -1.8,0 -3,0.7 -3.9,2.2 -1.1,1.9 -1.7,4.1 -1.7,6.8 0,2.8 0.6,5.2 1.8,7.1 1,1.6 2.2,2.3 3.8,2.3 h 15 c 1.4,0 2.5,1.1 2.5,2.5 v 62.8 c 0,16.3 -9.9,19.7 -18.2,19.7 -3.6,0 -6.6,-0.6 -9.1,-1.8 -2.7,-1.3 -4.6,-3.3 -5.8,-6 -1,-2.3 -1.6,-4.2 -2,-5.7 C 27.3,96.6 27,94.7 26.8,92.2 26.7,90.5 26.4,86.3 16.1,86.3 Z"
   id="path8272"
   inkscape:connector-curvature="0"
   style="fill:#00457c" />





</svg>