<?xml version="1.0" encoding="UTF-8" standalone="no"?>
<!-- Generator: Adobe Illustrator 18.0.0, SVG Export Plug-In . SVG Version: 6.00 Build 0)  -->

<svg
   xmlns:dc="http://purl.org/dc/elements/1.1/"
   xmlns:cc="http://creativecommons.org/ns#"
   xmlns:rdf="http://www.w3.org/1999/02/22-rdf-syntax-ns#"
   xmlns:svg="http://www.w3.org/2000/svg"
   xmlns="http://www.w3.org/2000/svg"
   xmlns:sodipodi="http://sodipodi.sourceforge.net/DTD/sodipodi-0.dtd"
   xmlns:inkscape="http://www.inkscape.org/namespaces/inkscape"
   version="1.1"
   id="abc"
   x="0px"
   y="0px"
   width="105"
   height="135"
   viewBox="0 0 105 135"
   enable-background="new 0 0 255 255"
   xml:space="preserve"
   sodipodi:docname="K.svg"
   inkscape:version="0.92.3 (2405546, 2018-03-11)"><metadata
   id="metadata8425"><rdf:RDF><cc:Work
       rdf:about=""><dc:format>image/svg+xml</dc:format><dc:type
         rdf:resource="http://purl.org/dc/dcmitype/StillImage" /><dc:title></dc:title></cc:Work></rdf:RDF></metadata><defs
   id="defs8423" /><sodipodi:namedview
   pagecolor="#ffffff"
   bordercolor="#666666"
   borderopacity="1"
   objecttolerance="10"
   gridtolerance="10"
   guidetolerance="10"
   inkscape:pageopacity="0"
   inkscape:pageshadow="2"
   inkscape:window-width="681"
   inkscape:window-height="480"
   id="namedview8421"
   showgrid="false"
   inkscape:zoom="0.9254902"
   inkscape:cx="127.5"
   inkscape:cy="75.233338"
   inkscape:window-x="0"
   inkscape:window-y="0"
   inkscape:window-maximized="0"
   inkscape:current-layer="abc" />
<path
   d="m 75.5,135 c -5,0 -8.9,-2.1 -11.4,-6.2 L 36.6,87.1 32,93 v 30.3 c 0,2.5 -0.9,5.9 -5.3,8.3 -3,1.6 -6.6,2.5 -10.7,2.5 -4.1,0 -7.7,-0.8 -10.7,-2.5 C 1,129.2 0,125.8 0,123.3 V 13.8 c 0,-2.5 0.9,-6 5.3,-8.2 3,-1.6 6.6,-2.3 10.6,-2.3 4.1,0 7.6,0.8 10.6,2.3 4.4,2.3 5.3,5.7 5.3,8.2 V 47.2 L 59.4,8.1 c 2.2,-3.2 5.3,-4.8 9.1,-4.8 4.1,0 8.2,1.7 12.2,5 4.1,3.4 6.1,7.2 6.1,11.3 0,2.4 -0.7,4.6 -2.2,6.6 0,0 -0.1,0.1 -0.1,0.1 l -27.1,34 34.6,53 c 1.2,1.9 1.8,3.9 1.8,5.8 0,4.1 -2,7.8 -6.1,11.1 -3.5,3.2 -7.8,4.8 -12.2,4.8 z M 36.8,80.3 c 0,0 0,0 0,0 0.9,0 1.6,0.5 2.1,1.1 l 29.4,44.7 c 1.6,2.7 3.9,3.9 7.2,3.9 3.3,0 6.4,-1.2 9.4,-3.7 2.9,-2.3 4.2,-4.7 4.2,-7.3 0,-1 -0.3,-2.1 -1,-3.2 L 52.6,61.4 C 52,60.5 52.1,59.3 52.7,58.5 L 80.9,23.1 c 0.8,-1.2 1.2,-2.4 1.2,-3.7 0,-2.6 -1.4,-5 -4.4,-7.5 -3,-2.5 -6,-3.8 -9,-3.8 -2.1,0 -3.7,0.9 -5,2.7 L 31.6,56.5 c -0.6,0.9 -1.8,1.3 -2.8,0.9 -1,-0.3 -1.7,-1.3 -1.7,-2.4 V 13.8 C 27.1,12.7 26.8,11.2 24.5,10 22.2,8.8 19.4,8.2 16.2,8.2 13,8.2 10.2,8.8 7.9,10 5.6,11.2 5.3,12.7 5.3,13.8 v 109.4 c 0,1.2 0.3,2.6 2.6,3.9 2.3,1.2 5,1.8 8.3,1.8 3.2,0 6,-0.6 8.3,-1.8 2.3,-1.3 2.7,-2.8 2.7,-3.9 V 92.1 c 0,-0.6 0.2,-1.1 0.5,-1.5 l 7.2,-9.3 c 0.4,-0.7 1.1,-1 1.9,-1 z"
   id="path8398"
   inkscape:connector-curvature="0"
   style="fill:#00457c" />

<path
   d="m 29.8,93.9 c 0,-0.4 -0.1,-0.7 -0.2,-1.1 v 2.1 c 0.1,-0.2 0.2,-0.6 0.2,-1 z"
   id="path8402"
   inkscape:connector-curvature="0"
   style="fill:#00457c" />








</svg>