<?xml version="1.0" encoding="UTF-8" standalone="no"?>
<!-- Generator: Adobe Illustrator 18.0.0, SVG Export Plug-In . SVG Version: 6.00 Build 0)  -->

<svg
   xmlns:dc="http://purl.org/dc/elements/1.1/"
   xmlns:cc="http://creativecommons.org/ns#"
   xmlns:rdf="http://www.w3.org/1999/02/22-rdf-syntax-ns#"
   xmlns:svg="http://www.w3.org/2000/svg"
   xmlns="http://www.w3.org/2000/svg"
   xmlns:sodipodi="http://sodipodi.sourceforge.net/DTD/sodipodi-0.dtd"
   xmlns:inkscape="http://www.inkscape.org/namespaces/inkscape"
   version="1.1"
   id="abc"
   x="0px"
   y="0px"
   width="105"
   height="135"
   viewBox="0 0 105 135"
   enable-background="new 0 0 255 255"
   xml:space="preserve"
   sodipodi:docname="L.svg"
   inkscape:version="0.92.3 (2405546, 2018-03-11)"><metadata
   id="metadata8529"><rdf:RDF><cc:Work
       rdf:about=""><dc:format>image/svg+xml</dc:format><dc:type
         rdf:resource="http://purl.org/dc/dcmitype/StillImage" /><dc:title></dc:title></cc:Work></rdf:RDF></metadata><defs
   id="defs8527" /><sodipodi:namedview
   pagecolor="#ffffff"
   bordercolor="#666666"
   borderopacity="1"
   objecttolerance="10"
   gridtolerance="10"
   guidetolerance="10"
   inkscape:pageopacity="0"
   inkscape:pageshadow="2"
   inkscape:window-width="681"
   inkscape:window-height="480"
   id="namedview8525"
   showgrid="false"
   inkscape:zoom="0.9254902"
   inkscape:cx="127.5"
   inkscape:cy="127.5"
   inkscape:window-x="0"
   inkscape:window-y="0"
   inkscape:window-maximized="0"
   inkscape:current-layer="abc" />
<path
   d="M 68.6,135 H 14.2 C 10.5,135 7.3,134.1 4.6,132.5 1.6,130.6 0,127.8 0,124.3 V 14.8 c 0,-2.5 0.9,-6 5.3,-8.2 3,-1.6 6.6,-2.3 10.6,-2.3 4.1,0 7.6,0.8 10.6,2.3 4.4,2.3 5.3,5.7 5.3,8.2 v 91.8 h 36.7 c 3.3,0 6,1.6 7.8,4.7 1.6,2.7 2.4,5.9 2.4,9.5 0,3.7 -0.8,6.9 -2.4,9.5 -1.7,3 -4.4,4.7 -7.7,4.7 z M 16,9.2 c -3.2,0 -6,0.6 -8.3,1.8 -2.3,1.2 -2.6,2.7 -2.6,3.8 v 109.4 c 0,1.8 0.7,3 2.3,4 1.9,1.2 4.2,1.8 6.9,1.8 h 54.4 c 1,0 2.3,-0.3 3.5,-2.2 1.1,-1.9 1.7,-4.2 1.7,-7 0,-2.7 -0.6,-5.1 -1.7,-7 -1.2,-2 -2.5,-2.2 -3.5,-2.2 H 29.5 c -1.4,0 -2.5,-1.1 -2.5,-2.5 V 14.8 C 27,13.7 26.7,12.2 24.4,11 22,9.8 19.2,9.2 16,9.2 Z"
   id="path8502"
   inkscape:connector-curvature="0"
   style="fill:#00457c" />










</svg>