<?xml version="1.0" encoding="UTF-8" standalone="no"?>
<!-- Generator: Adobe Illustrator 18.0.0, SVG Export Plug-In . SVG Version: 6.00 Build 0)  -->

<svg
   xmlns:dc="http://purl.org/dc/elements/1.1/"
   xmlns:cc="http://creativecommons.org/ns#"
   xmlns:rdf="http://www.w3.org/1999/02/22-rdf-syntax-ns#"
   xmlns:svg="http://www.w3.org/2000/svg"
   xmlns="http://www.w3.org/2000/svg"
   xmlns:sodipodi="http://sodipodi.sourceforge.net/DTD/sodipodi-0.dtd"
   xmlns:inkscape="http://www.inkscape.org/namespaces/inkscape"
   version="1.1"
   id="abc"
   x="0px"
   y="0px"
   width="115"
   height="135"
   viewBox="0 0 115 135"
   enable-background="new 0 0 255 255"
   xml:space="preserve"
   sodipodi:docname="M.svg"
   inkscape:version="0.92.3 (2405546, 2018-03-11)"><metadata
   id="metadata8616"><rdf:RDF><cc:Work
       rdf:about=""><dc:format>image/svg+xml</dc:format><dc:type
         rdf:resource="http://purl.org/dc/dcmitype/StillImage" /><dc:title></dc:title></cc:Work></rdf:RDF></metadata><defs
   id="defs8614" /><sodipodi:namedview
   pagecolor="#ffffff"
   bordercolor="#666666"
   borderopacity="1"
   objecttolerance="10"
   gridtolerance="10"
   guidetolerance="10"
   inkscape:pageopacity="0"
   inkscape:pageshadow="2"
   inkscape:window-width="681"
   inkscape:window-height="480"
   id="namedview8612"
   showgrid="false"
   inkscape:zoom="0.9254902"
   inkscape:cx="127.5"
   inkscape:cy="127.5"
   inkscape:window-x="691"
   inkscape:window-y="14"
   inkscape:window-maximized="0"
   inkscape:current-layer="abc" />
<path
   d="m 93.2,135 c -4.1,0 -7.7,-0.8 -10.7,-2.5 -4.3,-2.4 -5.3,-5.8 -5.3,-8.3 V 68.9 L 65.3,89.2 c -2.4,4.1 -6.2,6.2 -11.1,6.2 -4.8,0 -8.5,-2.2 -10.6,-6.3 L 32,67.8 v 56.4 c 0,2.5 -0.9,5.9 -5.3,8.3 -3,1.6 -6.6,2.5 -10.7,2.5 -4.1,0 -7.7,-0.8 -10.7,-2.5 C 1,130.1 0,126.7 0,124.2 V 20.1 C 0,14.8 1.6,10.7 4.8,8 7.8,5.4 11.6,4.1 16,4.1 c 5.7,0 9.9,0.9 13,2.7 3.1,1.8 6.4,5.7 10,12 L 54.5,46 70.2,18.9 c 3.6,-6.3 6.8,-10.2 10,-12 3.1,-1.8 7.4,-2.7 13,-2.7 4.4,0 8.1,1.3 11.2,3.9 3.2,2.7 4.8,6.7 4.8,12.1 v 104.1 c 0,2.5 -0.9,5.9 -5.3,8.3 -3,1.5 -6.6,2.4 -10.7,2.4 z M 79.8,57.2 c 0.2,0 0.4,0 0.7,0.1 1.1,0.3 1.8,1.3 1.8,2.4 v 64.5 c 0,1.2 0.3,2.6 2.6,3.9 2.3,1.2 5,1.8 8.3,1.8 3.2,0 6,-0.6 8.3,-1.8 2.3,-1.3 2.7,-2.8 2.7,-3.9 V 20.1 c 0,-3.8 -1,-6.5 -3,-8.2 -2.1,-1.8 -4.7,-2.7 -7.9,-2.7 -4.7,0 -8.2,0.7 -10.5,2 -1.6,0.9 -4.3,3.4 -8.1,10.2 L 57,52.4 c -0.4,0.8 -1.3,1.3 -2.2,1.3 v 0 c -0.9,0 -1.7,-0.5 -2.2,-1.3 L 34.9,21.4 C 31.1,14.6 28.4,12.1 26.8,11.2 24.5,9.9 21,9.2 16.3,9.2 c -3.2,0 -5.8,0.9 -7.9,2.7 -2,1.7 -3,4.4 -3,8.2 v 104.1 c 0,1.2 0.3,2.6 2.6,3.9 2.3,1.2 5,1.8 8.3,1.8 3.2,0 6,-0.6 8.3,-1.8 2.3,-1.3 2.6,-2.8 2.6,-3.9 V 58 c 0,-1.1 0.8,-2.1 1.9,-2.4 1.1,-0.3 2.3,0.2 2.8,1.2 l 16.3,29.9 c 1.3,2.5 3.3,3.7 6.2,3.7 3.1,0 5.3,-1.2 6.8,-3.8 L 77.7,58.4 c 0.4,-0.7 1.2,-1.2 2.1,-1.2 z"
   id="path8597"
   inkscape:connector-curvature="0"
   style="fill:#00457c" />






</svg>