<?xml version="1.0" encoding="UTF-8" standalone="no"?>
<!-- Generator: Adobe Illustrator 18.0.0, SVG Export Plug-In . SVG Version: 6.00 Build 0)  -->

<svg
   xmlns:dc="http://purl.org/dc/elements/1.1/"
   xmlns:cc="http://creativecommons.org/ns#"
   xmlns:rdf="http://www.w3.org/1999/02/22-rdf-syntax-ns#"
   xmlns:svg="http://www.w3.org/2000/svg"
   xmlns="http://www.w3.org/2000/svg"
   xmlns:sodipodi="http://sodipodi.sourceforge.net/DTD/sodipodi-0.dtd"
   xmlns:inkscape="http://www.inkscape.org/namespaces/inkscape"
   version="1.1"
   id="abc"
   x="0px"
   y="0px"
   width="105"
   height="135"
   viewBox="0 0 105 135"
   enable-background="new 0 0 255 255"
   xml:space="preserve"
   sodipodi:docname="N.svg"
   inkscape:version="0.92.3 (2405546, 2018-03-11)"><metadata
   id="metadata8831"><rdf:RDF><cc:Work
       rdf:about=""><dc:format>image/svg+xml</dc:format><dc:type
         rdf:resource="http://purl.org/dc/dcmitype/StillImage" /><dc:title></dc:title></cc:Work></rdf:RDF></metadata><defs
   id="defs8829" /><sodipodi:namedview
   pagecolor="#ffffff"
   bordercolor="#666666"
   borderopacity="1"
   objecttolerance="10"
   gridtolerance="10"
   guidetolerance="10"
   inkscape:pageopacity="0"
   inkscape:pageshadow="2"
   inkscape:window-width="681"
   inkscape:window-height="480"
   id="namedview8827"
   showgrid="false"
   inkscape:zoom="0.9254902"
   inkscape:cx="125.53347"
   inkscape:cy="129.95816"
   inkscape:window-x="0"
   inkscape:window-y="0"
   inkscape:window-maximized="0"
   inkscape:current-layer="abc" />
<path
   d="m 77.2,135 c -8.3,0 -14.1,-2.9 -17.2,-8.5 l -28,-51 v 48.7 c 0,2.5 -0.9,5.9 -5.3,8.3 -3,1.6 -6.6,2.5 -10.7,2.5 -4.1,0 -7.7,-0.8 -10.7,-2.5 C 1,130.1 0,126.7 0,124.2 V 15 C 0,12.5 0.9,9.1 5.3,6.7 8.3,5.1 11.9,4.2 16,4.2 21.7,4.2 25.8,5 28.7,6.8 31.6,8.6 34.6,12.5 38,19 L 61.1,63.1 V 14.8 c 0,-2.5 0.9,-6 5.3,-8.2 C 69.4,5 73,4.3 77,4.3 c 4.1,0 7.6,0.8 10.6,2.3 4.4,2.3 5.3,5.7 5.3,8.2 v 109.4 c 0,2.5 -0.9,5.9 -5.3,8.3 -2.7,1.6 -6.3,2.5 -10.4,2.5 z M 29.6,63.2 c 0.9,0 1.7,0.5 2.2,1.3 L 64.5,124 c 2.2,4 6.4,5.9 12.8,5.9 3.2,0 6,-0.6 8.3,-1.8 2.3,-1.3 2.7,-2.8 2.7,-3.9 V 14.8 C 88.3,13.7 88,12.2 85.7,11 83.4,9.8 80.6,9.2 77.4,9.2 c -3.2,0 -6,0.6 -8.3,1.8 -2.3,1.2 -2.6,2.7 -2.6,3.8 v 58.5 c 0,1.2 -0.8,2.2 -1.9,2.4 -1.1,0.3 -2.3,-0.2 -2.8,-1.3 L 33.9,21.3 C 30.3,14.4 27.9,12 26.5,11.1 24.4,9.9 21,9.2 16.4,9.2 c -3.2,0 -6,0.6 -8.3,1.8 -2.3,1.3 -2.7,2.8 -2.7,3.9 v 109.2 c 0,1.2 0.3,2.6 2.6,3.9 2.3,1.2 5,1.8 8.3,1.8 3.2,0 6,-0.6 8.3,-1.8 2.3,-1.3 2.6,-2.8 2.6,-3.9 V 65.6 c 0,-1.1 0.8,-2.1 1.9,-2.4 0.1,0 0.3,0 0.5,0 z"
   id="path8810"
   inkscape:connector-curvature="0"
   style="fill:#00457c" />






<path
   d="m 31.8,78.4 v 0 c 0,-1.3 -0.9,-2.4 -2.2,-2.6 V 81 c 1.2,-0.2 2.2,-1.3 2.2,-2.6 z"
   id="path8824"
   inkscape:connector-curvature="0"
   style="fill:#00457c" />
</svg>