<?xml version="1.0" encoding="UTF-8" standalone="no"?>
<!-- Generator: Adobe Illustrator 18.0.0, SVG Export Plug-In . SVG Version: 6.00 Build 0)  -->

<svg
   xmlns:dc="http://purl.org/dc/elements/1.1/"
   xmlns:cc="http://creativecommons.org/ns#"
   xmlns:rdf="http://www.w3.org/1999/02/22-rdf-syntax-ns#"
   xmlns:svg="http://www.w3.org/2000/svg"
   xmlns="http://www.w3.org/2000/svg"
   xmlns:sodipodi="http://sodipodi.sourceforge.net/DTD/sodipodi-0.dtd"
   xmlns:inkscape="http://www.inkscape.org/namespaces/inkscape"
   version="1.1"
   id="abc"
   x="0px"
   y="0px"
   width="105"
   height="135"
   viewBox="0 0 105 135"
   enable-background="new 0 0 255 255"
   xml:space="preserve"
   sodipodi:docname="O.svg"
   inkscape:version="0.92.3 (2405546, 2018-03-11)"><metadata
   id="metadata8949"><rdf:RDF><cc:Work
       rdf:about=""><dc:format>image/svg+xml</dc:format><dc:type
         rdf:resource="http://purl.org/dc/dcmitype/StillImage" /><dc:title></dc:title></cc:Work></rdf:RDF></metadata><defs
   id="defs8947" /><sodipodi:namedview
   pagecolor="#ffffff"
   bordercolor="#666666"
   borderopacity="1"
   objecttolerance="10"
   gridtolerance="10"
   guidetolerance="10"
   inkscape:pageopacity="0"
   inkscape:pageshadow="2"
   inkscape:window-width="681"
   inkscape:window-height="480"
   id="namedview8945"
   showgrid="false"
   inkscape:zoom="0.9254902"
   inkscape:cx="127.5"
   inkscape:cy="127.5"
   inkscape:window-x="0"
   inkscape:window-y="0"
   inkscape:window-maximized="0"
   inkscape:current-layer="abc" />
<path
   d="M 44.6,135 C 31.3,135 20.5,131.5 12.4,124.6 4.2,117.6 0,106.6 0,91.9 V 46.3 C 0,31.6 4.2,20.6 12.4,13.6 20.5,6.7 31.4,3.2 44.6,3.2 58,3.2 68.9,6.7 77,13.6 c 8.2,7 12.4,18 12.4,32.7 v 45.6 c 0,14.7 -4.2,25.7 -12.4,32.7 -8.1,6.9 -19,10.4 -32.4,10.4 z m 0,-126.8 c -12.1,0 -21.8,3.1 -29,9.2 C 8.5,23.4 5,33.1 5,46.3 v 45.6 c 0,13.2 3.6,22.9 10.6,28.9 7.2,6.1 16.9,9.2 29,9.2 12.2,0 22,-3.1 29.2,-9.2 7.1,-6 10.6,-15.7 10.6,-28.9 V 46.3 C 84.4,33.1 80.8,23.4 73.8,17.4 66.6,11.3 56.8,8.2 44.6,8.2 Z m 0,103.4 c -8.1,0 -17.8,-3.4 -17.8,-19.7 V 46.3 c 0,-16.3 9.7,-19.7 17.8,-19.7 8.2,0 18,3.4 18,19.7 v 45.6 c 0,16.3 -9.8,19.7 -18,19.7 z m 0,-80 c -8.7,0 -12.8,4.7 -12.8,14.7 v 45.6 c 0,10.2 4,14.7 12.8,14.7 8.9,0 13,-4.7 13,-14.7 V 46.3 c 0,-10 -4.1,-14.7 -13,-14.7 z"
   id="path8926"
   inkscape:connector-curvature="0"
   style="fill:#00457c" />








</svg>