<?xml version="1.0" encoding="UTF-8" standalone="no"?>
<!-- Generator: Adobe Illustrator 18.0.0, SVG Export Plug-In . SVG Version: 6.00 Build 0)  -->

<svg
   xmlns:dc="http://purl.org/dc/elements/1.1/"
   xmlns:cc="http://creativecommons.org/ns#"
   xmlns:rdf="http://www.w3.org/1999/02/22-rdf-syntax-ns#"
   xmlns:svg="http://www.w3.org/2000/svg"
   xmlns="http://www.w3.org/2000/svg"
   xmlns:sodipodi="http://sodipodi.sourceforge.net/DTD/sodipodi-0.dtd"
   xmlns:inkscape="http://www.inkscape.org/namespaces/inkscape"
   version="1.1"
   id="abc"
   x="0px"
   y="0px"
   width="105"
   height="135"
   viewBox="0 0 105 135"
   enable-background="new 0 0 255 255"
   xml:space="preserve"
   sodipodi:docname="P.svg"
   inkscape:version="0.92.3 (2405546, 2018-03-11)"><metadata
   id="metadata9032"><rdf:RDF><cc:Work
       rdf:about=""><dc:format>image/svg+xml</dc:format><dc:type
         rdf:resource="http://purl.org/dc/dcmitype/StillImage" /><dc:title></dc:title></cc:Work></rdf:RDF></metadata><defs
   id="defs9030" /><sodipodi:namedview
   pagecolor="#ffffff"
   bordercolor="#666666"
   borderopacity="1"
   objecttolerance="10"
   gridtolerance="10"
   guidetolerance="10"
   inkscape:pageopacity="0"
   inkscape:pageshadow="2"
   inkscape:window-width="681"
   inkscape:window-height="480"
   id="namedview9028"
   showgrid="false"
   inkscape:zoom="0.9254902"
   inkscape:cx="127.5"
   inkscape:cy="170.72034"
   inkscape:window-x="0"
   inkscape:window-y="0"
   inkscape:window-maximized="0"
   inkscape:current-layer="abc" />
<path
   d="M 16,135 C 11.9,135 8.3,134.2 5.3,132.5 1,130.1 0,126.7 0,124.2 V 14.8 c 0,-2.9 1.2,-5.5 3.6,-7.6 2.3,-2 5.3,-3 8.9,-3 h 35.6 c 12.8,0 23.3,3.4 31.1,10.2 7.9,6.8 12,17.6 12,31.9 v 0.9 c 0,14.4 -4.2,25.2 -12.5,32.1 -8.2,6.8 -19,10.3 -32.3,10.3 H 31.9 v 34.7 c 0,2.5 -0.9,5.9 -5.3,8.3 -3,1.5 -6.6,2.4 -10.6,2.4 z M 12.5,9.2 C 10.1,9.2 8.3,9.8 6.9,11 5.6,12.1 5,13.3 5,14.8 v 109.4 c 0,1.2 0.3,2.6 2.6,3.9 2.3,1.2 5,1.8 8.3,1.8 3.2,0 6,-0.6 8.3,-1.8 2.3,-1.3 2.6,-2.8 2.6,-3.9 V 87 c 0,-1.4 1.1,-2.5 2.5,-2.5 h 17 c 12.1,0 21.9,-3.1 29.1,-9.1 7.1,-5.9 10.7,-15.5 10.7,-28.3 V 46.2 C 86.1,33.4 82.7,23.9 75.9,18.1 69,12.2 59.6,9.2 48,9.2 Z m 33.9,59.7 h -17 c -1.4,0 -2.5,-1.1 -2.5,-2.5 V 30.1 c 0,-1.4 1.1,-2.5 2.5,-2.5 h 17 c 8.2,0 18,3.4 18,19.7 v 1.9 c 0,16.3 -9.8,19.7 -18,19.7 z m -14.5,-5 h 14.5 c 8.9,0 13,-4.7 13,-14.7 v -1.9 c 0,-10 -4.1,-14.7 -13,-14.7 H 31.9 Z"
   id="path9007"
   inkscape:connector-curvature="0"
   style="fill:#00457c" />









</svg>