<?xml version="1.0" encoding="UTF-8" standalone="no"?>
<!-- Generator: Adobe Illustrator 18.0.0, SVG Export Plug-In . SVG Version: 6.00 Build 0)  -->

<svg
   xmlns:dc="http://purl.org/dc/elements/1.1/"
   xmlns:cc="http://creativecommons.org/ns#"
   xmlns:rdf="http://www.w3.org/1999/02/22-rdf-syntax-ns#"
   xmlns:svg="http://www.w3.org/2000/svg"
   xmlns="http://www.w3.org/2000/svg"
   xmlns:sodipodi="http://sodipodi.sourceforge.net/DTD/sodipodi-0.dtd"
   xmlns:inkscape="http://www.inkscape.org/namespaces/inkscape"
   version="1.1"
   id="abc"
   x="0px"
   y="0px"
   width="90"
   height="151"
   viewBox="0 0 90 151"
   enable-background="new 0 0 255 255"
   xml:space="preserve"
   sodipodi:docname="Q.svg"
   inkscape:version="0.92.3 (2405546, 2018-03-11)"><metadata
   id="metadata9148"><rdf:RDF><cc:Work
       rdf:about=""><dc:format>image/svg+xml</dc:format><dc:type
         rdf:resource="http://purl.org/dc/dcmitype/StillImage" /><dc:title></dc:title></cc:Work></rdf:RDF></metadata><defs
   id="defs9146" /><sodipodi:namedview
   pagecolor="#ffffff"
   bordercolor="#666666"
   borderopacity="1"
   objecttolerance="10"
   gridtolerance="10"
   guidetolerance="10"
   inkscape:pageopacity="0"
   inkscape:pageshadow="2"
   inkscape:window-width="681"
   inkscape:window-height="480"
   id="namedview9144"
   showgrid="false"
   inkscape:showpageshadow="false"
   inkscape:zoom="3.7019608"
   inkscape:cx="87.932048"
   inkscape:cy="116.18083"
   inkscape:window-x="0"
   inkscape:window-y="0"
   inkscape:window-maximized="0"
   inkscape:current-layer="abc" />
<path
   d="m 44.7,151 c -2.8,0 -5.3,-0.9 -7.4,-2.8 -2.2,-1.9 -3.4,-4.6 -3.4,-8 v -7.8 C 23.9,130.8 15.8,126.7 9.8,120.3 3.3,113.4 0,103.2 0,90.1 V 44.5 C 0,29.7 4.1,18.7 12.3,11.7 20.4,4.9 31.2,1.4 44.6,1.4 58,1.4 68.9,4.9 77,11.7 c 8.2,6.9 12.4,18 12.4,32.8 v 45.7 c 0,13 -3.3,23.1 -9.9,30.1 -6.1,6.5 -14.2,10.6 -24.2,12.2 v 7.8 c 0,3.4 -1.1,6.1 -3.4,8 -1.9,1.8 -4.4,2.7 -7.2,2.7 z m 0,-144.5 c -12.2,0 -22,3.1 -29.1,9.1 -7,6 -10.6,15.7 -10.6,29 v 45.6 c 0,11.8 2.8,20.8 8.4,26.8 5.6,6 13.5,9.7 23.2,10.8 1.3,0.2 2.2,1.2 2.2,2.5 v 10 c 0,1.9 0.5,3.3 1.6,4.2 1.2,1 2.6,1.5 4.1,1.5 1.6,0 2.9,-0.5 4.1,-1.5 1.1,-0.9 1.6,-2.3 1.6,-4.2 v -10 c 0,-1.3 0.9,-2.3 2.2,-2.5 9.8,-1.2 17.6,-4.9 23.3,-10.9 5.7,-6 8.5,-15 8.5,-26.7 V 44.6 c 0,-13.3 -3.6,-23 -10.6,-29 C 66.7,9.6 56.9,6.5 44.7,6.5 Z m -8.2,101.7 c -0.4,0 -0.8,-0.1 -1.2,-0.3 C 29.8,104.8 27,98.9 27,90.2 V 44.6 c 0,-16.3 9.7,-19.7 17.8,-19.7 8.2,0 18,3.4 18,19.7 v 45.6 c 0,8.5 -2.9,14.4 -8.5,17.7 -0.8,0.4 -1.7,0.4 -2.5,0 -0.8,-0.4 -1.2,-1.3 -1.2,-2.2 v -7.6 c 0,-1.9 -0.5,-3.2 -1.5,-4.1 -1.1,-1 -2.5,-1.5 -4.2,-1.5 -1.7,0 -3.1,0.5 -4.2,1.5 -1,0.9 -1.5,2.2 -1.5,4.1 v 7.6 c 0,0.9 -0.5,1.7 -1.2,2.2 -0.7,0.2 -1.1,0.3 -1.5,0.3 z m 8.2,-20.7 c 2.9,0 5.4,0.9 7.5,2.7 2.2,1.9 3.3,4.5 3.3,7.9 v 1.8 c 1.5,-2.4 2.2,-5.6 2.2,-9.7 V 44.6 c 0,-10 -4.1,-14.7 -13,-14.7 -8.7,0 -12.8,4.7 -12.8,14.7 v 45.6 c 0,4.1 0.7,7.2 2.1,9.6 v -1.7 c 0,-3.4 1.1,-6.1 3.3,-7.9 2,-1.8 4.5,-2.7 7.4,-2.7 z"
   id="path9117"
   inkscape:connector-curvature="0"
   style="fill:#00457c" />












</svg>