<?xml version="1.0" encoding="UTF-8" standalone="no"?>
<!-- Generator: Adobe Illustrator 18.0.0, SVG Export Plug-In . SVG Version: 6.00 Build 0)  -->

<svg
   xmlns:dc="http://purl.org/dc/elements/1.1/"
   xmlns:cc="http://creativecommons.org/ns#"
   xmlns:rdf="http://www.w3.org/1999/02/22-rdf-syntax-ns#"
   xmlns:svg="http://www.w3.org/2000/svg"
   xmlns="http://www.w3.org/2000/svg"
   xmlns:sodipodi="http://sodipodi.sourceforge.net/DTD/sodipodi-0.dtd"
   xmlns:inkscape="http://www.inkscape.org/namespaces/inkscape"
   version="1.1"
   id="abc"
   x="0px"
   y="0px"
   width="105"
   height="135"
   viewBox="0 0 105 135"
   enable-background="new 0 0 255 255"
   xml:space="preserve"
   sodipodi:docname="R.svg"
   inkscape:version="0.92.3 (2405546, 2018-03-11)"><metadata
   id="metadata9405"><rdf:RDF><cc:Work
       rdf:about=""><dc:format>image/svg+xml</dc:format><dc:type
         rdf:resource="http://purl.org/dc/dcmitype/StillImage" /><dc:title></dc:title></cc:Work></rdf:RDF></metadata><defs
   id="defs9403" /><sodipodi:namedview
   pagecolor="#ffffff"
   bordercolor="#666666"
   borderopacity="1"
   objecttolerance="10"
   gridtolerance="10"
   guidetolerance="10"
   inkscape:pageopacity="0"
   inkscape:pageshadow="2"
   inkscape:window-width="681"
   inkscape:window-height="480"
   id="namedview9401"
   showgrid="false"
   inkscape:zoom="0.9254902"
   inkscape:cx="127.5"
   inkscape:cy="127.5"
   inkscape:window-x="0"
   inkscape:window-y="0"
   inkscape:window-maximized="0"
   inkscape:current-layer="abc" />
<path
   d="m 73,135 c -4.9,0 -8.7,-2.2 -10.8,-6.3 L 39.3,84.3 H 32 v 39 c 0,2.5 -0.9,5.9 -5.3,8.3 -3,1.6 -6.6,2.5 -10.7,2.5 -4.1,0 -7.7,-0.8 -10.7,-2.5 C 1,129.2 0,125.8 0,123.3 V 13.8 C 0,11 1,8.5 3,6.4 5,4.3 7.6,3.2 10.7,3.2 h 35.6 c 29.7,0 44.8,13.2 44.8,39.3 0,17.8 -6.7,29.9 -19.8,36.1 l 19.6,35.5 c 0.8,1.2 1.2,2.7 1.2,4.4 0,4.1 -2.1,7.9 -6.3,11.4 C 82,133.3 77.6,135 73,135 Z M 29.5,79.2 h 11.4 c 0.9,0 1.8,0.5 2.2,1.4 l 23.6,45.8 c 1.3,2.5 3.3,3.6 6.4,3.6 3.4,0 6.7,-1.3 9.8,-3.9 3,-2.5 4.5,-5 4.5,-7.5 0,-0.7 -0.1,-1.3 -0.4,-1.6 -0.1,-0.1 -0.1,-0.2 -0.2,-0.2 l -21,-38 C 65.5,78.2 65.4,77.4 65.6,76.7 65.8,76 66.4,75.5 67,75.2 79.9,70.2 86.2,59.5 86.2,42.6 86.2,19.5 73.2,8.3 46.4,8.3 H 10.9 C 9.2,8.3 7.8,8.8 6.8,9.9 5.7,11 5.2,12.3 5.2,13.8 v 109.4 c 0,1.2 0.3,2.6 2.6,3.9 2.3,1.2 5,1.8 8.3,1.8 3.2,0 6,-0.6 8.3,-1.8 2.3,-1.3 2.6,-2.8 2.6,-3.9 V 81.7 c 0,-1.3 1.1,-2.5 2.5,-2.5 z m 17,-15.6 h -17 C 28.1,63.6 27,62.5 27,61.1 v -32 c 0,-1.4 1.1,-2.5 2.5,-2.5 h 17 c 5.7,0 10.1,1.5 13.2,4.4 3.2,2.9 4.8,7.7 4.8,14.1 0,6.4 -1.6,11.2 -4.7,14.1 -3.1,2.9 -7.6,4.4 -13.3,4.4 z M 32,58.6 h 14.5 c 4.4,0 7.7,-1 9.8,-3 2.1,-2 3.2,-5.5 3.2,-10.5 0,-5 -1.1,-8.5 -3.2,-10.5 -2.1,-2 -5.5,-3 -9.8,-3 H 32 Z"
   id="path9382"
   inkscape:connector-curvature="0"
   style="fill:#00457c" />








</svg>