<?xml version="1.0" encoding="UTF-8" standalone="no"?>
<!-- Generator: Adobe Illustrator 18.0.0, SVG Export Plug-In . SVG Version: 6.00 Build 0)  -->

<svg
   xmlns:dc="http://purl.org/dc/elements/1.1/"
   xmlns:cc="http://creativecommons.org/ns#"
   xmlns:rdf="http://www.w3.org/1999/02/22-rdf-syntax-ns#"
   xmlns:svg="http://www.w3.org/2000/svg"
   xmlns="http://www.w3.org/2000/svg"
   xmlns:sodipodi="http://sodipodi.sourceforge.net/DTD/sodipodi-0.dtd"
   xmlns:inkscape="http://www.inkscape.org/namespaces/inkscape"
   version="1.1"
   id="abc"
   x="0px"
   y="0px"
   width="105"
   height="135"
   viewBox="0 0 105 135"
   enable-background="new 0 0 255 255"
   xml:space="preserve"
   sodipodi:docname="S.svg"
   inkscape:version="0.92.3 (2405546, 2018-03-11)"><metadata
   id="metadata9499"><rdf:RDF><cc:Work
       rdf:about=""><dc:format>image/svg+xml</dc:format><dc:type
         rdf:resource="http://purl.org/dc/dcmitype/StillImage" /><dc:title></dc:title></cc:Work></rdf:RDF></metadata><defs
   id="defs9497" /><sodipodi:namedview
   pagecolor="#ffffff"
   bordercolor="#666666"
   borderopacity="1"
   objecttolerance="10"
   gridtolerance="10"
   guidetolerance="10"
   inkscape:pageopacity="0"
   inkscape:pageshadow="2"
   inkscape:window-width="681"
   inkscape:window-height="480"
   id="namedview9495"
   showgrid="false"
   inkscape:zoom="0.9254902"
   inkscape:cx="127.5"
   inkscape:cy="127.5"
   inkscape:window-x="0"
   inkscape:window-y="0"
   inkscape:window-maximized="0"
   inkscape:current-layer="abc" />
<path
   d="M 44,135 C 32.5,135 22.3,132.6 13.7,127.8 4.6,122.8 0,116.8 0,110.1 0,106.4 1.3,102.6 4,99 c 2.8,-3.9 6.3,-5.8 10.2,-5.8 2.2,0 4.6,0.8 7.1,2.5 2.2,1.5 4.3,3.1 6.2,4.9 1.6,1.5 3.8,2.9 6.8,4.1 2.9,1.2 6,1.9 9.2,1.9 4,0 7.5,-0.8 10.5,-2.5 2.5,-1.4 3.7,-3.5 3.7,-6.3 0,-3 -1.5,-5.6 -4.6,-8 C 49.5,87.1 45.1,84.5 40,82.3 34.6,79.9 29.2,77.2 23.7,74.3 18,71.2 13.1,66.7 9.2,61.1 c -4,-5.8 -6,-12.7 -6,-20.7 0,-13 4.7,-22.8 14,-29.3 9,-6.3 19.9,-9.5 32.6,-9.5 3.1,0 6.3,0.2 9.6,0.5 3.4,0.4 7.2,1.1 11.3,2.1 4.4,1.1 8.1,2.9 11,5.4 3.1,2.7 4.7,6.1 4.7,10 0,3.5 -1.1,7.1 -3.2,10.7 -2.3,4 -5.8,6.1 -10,6.1 -1.2,0 -3.5,-0.4 -9.9,-3.5 -4.1,-2 -8.7,-3 -13.7,-3 -5.2,0 -9,0.9 -11.5,2.6 -2.9,2 -3.2,4 -3.2,5.3 0,1.9 1,3.6 3.1,5.3 2.5,2 5.6,3.8 9.4,5.2 4.1,1.6 8.6,3.6 13.4,6.1 4.9,2.5 9.4,5.3 13.5,8.3 4.3,3.1 8,7.6 10.8,13.2 2.9,5.6 4.3,12.1 4.3,19.2 0,12.5 -4.3,22.5 -12.8,29.5 C 68.4,131.5 57.4,135 44,135 Z M 14.2,98.2 c -2.3,0 -4.3,1.2 -6.2,3.8 -2,2.8 -3,5.5 -3,8.2 0,4.7 3.7,9.2 11.1,13.3 7.8,4.4 17.2,6.6 27.9,6.6 12.2,0 22.1,-3.1 29.5,-9.3 7.4,-6.1 11,-14.5 11,-25.7 0,-6.3 -1.3,-12 -3.8,-16.9 C 78.2,73.3 75.1,69.5 71.4,66.8 67.5,64 63.2,61.3 58.6,58.9 53.9,56.5 49.6,54.5 45.7,53 41.5,51.4 37.8,49.4 35,47 c -3.3,-2.7 -5,-5.7 -5,-9.2 0,-3.7 1.8,-6.9 5.4,-9.4 3.3,-2.3 8,-3.5 14.3,-3.5 5.7,0 11.1,1.2 15.9,3.5 5.9,2.9 7.4,3 7.7,3 2.4,0 4.2,-1.2 5.7,-3.6 1.7,-2.9 2.5,-5.6 2.5,-8.2 0,-2.5 -1,-4.5 -3,-6.3 C 76.2,11.3 73.2,9.9 69.6,9 65.7,8 62.1,7.4 58.9,7 55.7,6.7 52.7,6.5 49.8,6.5 38.2,6.5 28.2,9.4 20.1,15.1 12.1,20.7 8.3,28.9 8.3,40.3 c 0,6.9 1.7,12.9 5.1,17.8 3.5,5 7.8,9 12.8,11.7 5.3,2.9 10.7,5.5 15.9,7.8 5.5,2.4 10.2,5.2 14.1,8.1 4.4,3.4 6.6,7.4 6.6,12 0,4.7 -2.2,8.4 -6.3,10.7 -3.7,2.1 -8,3.2 -12.9,3.2 -3.9,0 -7.6,-0.8 -11.1,-2.3 -3.5,-1.5 -6.2,-3.2 -8.2,-5.1 -1.7,-1.6 -3.5,-3 -5.5,-4.3 -1.9,-1.2 -3.4,-1.7 -4.6,-1.7 z"
   id="path9476"
   inkscape:connector-curvature="0"
   style="fill:#00457c" />








</svg>