<?xml version="1.0" encoding="UTF-8" standalone="no"?>
<!-- Generator: Adobe Illustrator 18.0.0, SVG Export Plug-In . SVG Version: 6.00 Build 0)  -->

<svg
   xmlns:dc="http://purl.org/dc/elements/1.1/"
   xmlns:cc="http://creativecommons.org/ns#"
   xmlns:rdf="http://www.w3.org/1999/02/22-rdf-syntax-ns#"
   xmlns:svg="http://www.w3.org/2000/svg"
   xmlns="http://www.w3.org/2000/svg"
   xmlns:sodipodi="http://sodipodi.sourceforge.net/DTD/sodipodi-0.dtd"
   xmlns:inkscape="http://www.inkscape.org/namespaces/inkscape"
   version="1.1"
   id="abc"
   x="0px"
   y="0px"
   width="105"
   height="135"
   viewBox="0 0 105 135"
   enable-background="new 0 0 255 255"
   xml:space="preserve"
   sodipodi:docname="T.svg"
   inkscape:version="0.92.3 (2405546, 2018-03-11)"><metadata
   id="metadata9679"><rdf:RDF><cc:Work
       rdf:about=""><dc:format>image/svg+xml</dc:format><dc:type
         rdf:resource="http://purl.org/dc/dcmitype/StillImage" /><dc:title></dc:title></cc:Work></rdf:RDF></metadata><defs
   id="defs9677" /><sodipodi:namedview
   pagecolor="#ffffff"
   bordercolor="#666666"
   borderopacity="1"
   objecttolerance="10"
   gridtolerance="10"
   guidetolerance="10"
   inkscape:pageopacity="0"
   inkscape:pageshadow="2"
   inkscape:window-width="681"
   inkscape:window-height="480"
   id="namedview9675"
   showgrid="false"
   inkscape:zoom="0.9254902"
   inkscape:cx="127.5"
   inkscape:cy="127.5"
   inkscape:window-x="0"
   inkscape:window-y="0"
   inkscape:window-maximized="0"
   inkscape:current-layer="abc" />
<path
   d="m 47.8,135 c -4.1,0 -7.7,-0.8 -10.7,-2.5 -4.3,-2.4 -5.3,-5.8 -5.3,-8.3 V 32.6 H 10.6 C 7.2,32.6 4.4,31 2.5,28 0.8,25.3 0,22 0,18.2 0,14.6 0.8,11.5 2.4,8.8 4.2,5.8 7,4.2 10.6,4.2 h 74.3 c 3.5,0 6.3,1.6 8.2,4.6 1.6,2.7 2.4,5.8 2.4,9.4 0,3.8 -0.9,7.1 -2.5,9.8 -1.9,3 -4.7,4.6 -8.1,4.6 H 63.7 v 91.5 c 0,2.5 -0.9,6 -5.3,8.3 -2.9,1.7 -6.5,2.6 -10.6,2.6 z M 10.6,9.2 c -1.8,0 -3,0.7 -3.9,2.2 -1.1,1.9 -1.7,4.1 -1.7,6.8 0,2.9 0.6,5.2 1.8,7.1 1,1.6 2.2,2.3 3.8,2.3 h 23.7 c 1.4,0 2.5,1.1 2.5,2.5 v 94 c 0,1.2 0.3,2.7 2.7,4 2.3,1.2 5,1.9 8.3,1.9 3.2,0 6,-0.6 8.3,-1.9 2.4,-1.3 2.7,-2.8 2.7,-4 v -94 c 0,-1.4 1.1,-2.5 2.5,-2.5 H 85 c 1.7,0 2.8,-0.7 3.8,-2.3 C 90,23.4 90.6,21 90.6,18.2 90.6,15.5 90,13.3 88.9,11.4 88,9.9 86.8,9.2 85,9.2 Z"
   id="path9652"
   inkscape:connector-curvature="0"
   style="fill:#00457c" />










</svg>