<?xml version="1.0" encoding="UTF-8" standalone="no"?>
<!-- Generator: Adobe Illustrator 18.0.0, SVG Export Plug-In . SVG Version: 6.00 Build 0)  -->

<svg
   xmlns:dc="http://purl.org/dc/elements/1.1/"
   xmlns:cc="http://creativecommons.org/ns#"
   xmlns:rdf="http://www.w3.org/1999/02/22-rdf-syntax-ns#"
   xmlns:svg="http://www.w3.org/2000/svg"
   xmlns="http://www.w3.org/2000/svg"
   xmlns:sodipodi="http://sodipodi.sourceforge.net/DTD/sodipodi-0.dtd"
   xmlns:inkscape="http://www.inkscape.org/namespaces/inkscape"
   version="1.1"
   id="abc"
   x="0px"
   y="0px"
   width="105"
   height="135"
   viewBox="0 0 105 135"
   enable-background="new 0 0 255 255"
   xml:space="preserve"
   sodipodi:docname="U.svg"
   inkscape:version="0.92.3 (2405546, 2018-03-11)"><metadata
   id="metadata9810"><rdf:RDF><cc:Work
       rdf:about=""><dc:format>image/svg+xml</dc:format><dc:type
         rdf:resource="http://purl.org/dc/dcmitype/StillImage" /><dc:title></dc:title></cc:Work></rdf:RDF></metadata><defs
   id="defs9808" /><sodipodi:namedview
   pagecolor="#ffffff"
   bordercolor="#666666"
   borderopacity="1"
   objecttolerance="10"
   gridtolerance="10"
   guidetolerance="10"
   inkscape:pageopacity="0"
   inkscape:pageshadow="2"
   inkscape:window-width="681"
   inkscape:window-height="480"
   id="namedview9806"
   showgrid="false"
   inkscape:zoom="0.9254902"
   inkscape:cx="127.5"
   inkscape:cy="127.5"
   inkscape:window-x="686"
   inkscape:window-y="43"
   inkscape:window-maximized="0"
   inkscape:current-layer="abc" />
<path
   d="M 45.9,135 C 32.2,135 21,131.5 12.7,124.6 4.3,117.6 0,106.6 0,91.9 V 13.8 C 0,10.2 1.8,7.4 5.2,5.6 8.1,4 11.7,3.2 15.9,3.2 c 4.1,0 7.6,0.8 10.6,2.3 4.4,2.3 5.3,5.7 5.3,8.2 v 78.2 c 0,10 4.5,14.7 14,14.7 9.6,0 14,-4.7 14,-14.7 V 13.8 c 0,-3.6 1.8,-6.4 5.2,-8.2 2.9,-1.6 6.5,-2.4 10.7,-2.4 4.1,0 7.6,0.8 10.6,2.3 4.4,2.3 5.3,5.7 5.3,8.2 v 78.2 c 0,14.7 -4.3,25.7 -12.8,32.7 C 70.6,131.5 59.5,135 45.9,135 Z M 16,8.2 C 12.6,8.2 9.8,8.8 7.6,10 5.3,11.2 5.1,12.7 5.1,13.8 v 78.1 c 0,13.1 3.7,22.9 10.9,28.9 7.4,6.1 17.4,9.2 30,9.2 12.4,0 22.5,-3.1 29.9,-9.2 7.3,-6 11,-15.7 11,-28.9 V 13.8 C 86.9,12.7 86.6,11.2 84.3,10 82,8.8 79.2,8.2 76,8.2 c -3.4,0 -6.2,0.6 -8.4,1.8 -2.3,1.2 -2.5,2.7 -2.5,3.8 v 78.1 c 0,12.9 -6.6,19.7 -19,19.7 -12.4,0 -19,-6.8 -19,-19.7 V 13.8 C 27.1,12.7 26.8,11.2 24.5,10 22,8.8 19.2,8.2 16,8.2 Z"
   id="path9783"
   inkscape:connector-curvature="0"
   style="fill:#00457c" />










</svg>