<?xml version="1.0" encoding="UTF-8" standalone="no"?>
<!-- Generator: Adobe Illustrator 18.0.0, SVG Export Plug-In . SVG Version: 6.00 Build 0)  -->

<svg
   xmlns:dc="http://purl.org/dc/elements/1.1/"
   xmlns:cc="http://creativecommons.org/ns#"
   xmlns:rdf="http://www.w3.org/1999/02/22-rdf-syntax-ns#"
   xmlns:svg="http://www.w3.org/2000/svg"
   xmlns="http://www.w3.org/2000/svg"
   xmlns:sodipodi="http://sodipodi.sourceforge.net/DTD/sodipodi-0.dtd"
   xmlns:inkscape="http://www.inkscape.org/namespaces/inkscape"
   version="1.1"
   id="abc"
   x="0px"
   y="0px"
   width="105"
   height="135"
   viewBox="0 0 105 135"
   enable-background="new 0 0 255 255"
   xml:space="preserve"
   sodipodi:docname="V.svg"
   inkscape:version="0.92.3 (2405546, 2018-03-11)"><metadata
   id="metadata9906"><rdf:RDF><cc:Work
       rdf:about=""><dc:format>image/svg+xml</dc:format><dc:type
         rdf:resource="http://purl.org/dc/dcmitype/StillImage" /><dc:title></dc:title></cc:Work></rdf:RDF></metadata><defs
   id="defs9904" /><sodipodi:namedview
   pagecolor="#ffffff"
   bordercolor="#666666"
   borderopacity="1"
   objecttolerance="10"
   gridtolerance="10"
   guidetolerance="10"
   inkscape:pageopacity="0"
   inkscape:pageshadow="2"
   inkscape:window-width="681"
   inkscape:window-height="480"
   id="namedview9902"
   showgrid="false"
   inkscape:zoom="0.9254902"
   inkscape:cx="127.5"
   inkscape:cy="127.5"
   inkscape:window-x="676"
   inkscape:window-y="559"
   inkscape:window-maximized="0"
   inkscape:current-layer="abc" />
<path
   d="m 52.5,135 c -4.6,0 -8.7,-0.9 -12.3,-2.6 -3.9,-1.8 -6.5,-4.6 -7.6,-8.1 L 0.4,19.4 c 0,0 0,-0.1 0,-0.1 C 0,17.8 0,17.2 0,16.8 0,12.9 2.3,9.6 6.8,6.9 10.9,4.5 15.2,3.3 19.7,3.3 27.4,3.3 30,7 30.9,10.1 L 52.6,89.5 74.1,10.1 C 75,7 77.6,3.3 85.3,3.3 c 4.4,0 8.8,1.2 12.9,3.6 4.5,2.7 6.8,6 6.8,9.9 0,0.6 -0.1,1.3 -0.4,2.5 0,0 0,0.1 0,0.1 l -32,104.9 c -1.1,3.6 -3.7,6.3 -7.6,8.2 -3.8,1.6 -7.9,2.5 -12.5,2.5 z M 5.2,17.9 37.3,122.8 c 0.7,2.2 2.3,3.8 5,5.1 2.9,1.4 6.3,2.1 10.2,2.1 3.9,0 7.3,-0.7 10.2,-2.1 2.6,-1.2 4.3,-2.9 5,-5.1 L 99.7,18 c 0.2,-0.9 0.3,-1.2 0.3,-1.3 0,-0.7 0,-3 -4.4,-5.5 -3.3,-1.9 -6.8,-2.9 -10.3,-2.9 -5.5,0 -6.1,2.3 -6.4,3.2 l -24,88.1 c -0.3,1.1 -1.3,1.8 -2.4,1.8 0,0 0,0 0,0 -1.1,0 -2.1,-0.8 -2.4,-1.8 L 26,11.4 c -0.2,-0.9 -0.9,-3.1 -6.4,-3.1 -3.5,0 -7,1 -10.3,2.9 -4.4,2.5 -4.4,4.8 -4.4,5.5 v 0 c 0,0 0.1,0.3 0.3,1.2 z"
   id="path9889"
   inkscape:connector-curvature="0"
   style="fill:#00457c" />





</svg>