<?xml version="1.0" encoding="UTF-8" standalone="no"?>
<!-- Generator: Adobe Illustrator 18.0.0, SVG Export Plug-In . SVG Version: 6.00 Build 0)  -->

<svg
   xmlns:dc="http://purl.org/dc/elements/1.1/"
   xmlns:cc="http://creativecommons.org/ns#"
   xmlns:rdf="http://www.w3.org/1999/02/22-rdf-syntax-ns#"
   xmlns:svg="http://www.w3.org/2000/svg"
   xmlns="http://www.w3.org/2000/svg"
   xmlns:sodipodi="http://sodipodi.sourceforge.net/DTD/sodipodi-0.dtd"
   xmlns:inkscape="http://www.inkscape.org/namespaces/inkscape"
   version="1.1"
   id="abc"
   x="0px"
   y="0px"
   width="165"
   height="135"
   viewBox="0 0 165 135"
   enable-background="new 0 0 255 255"
   xml:space="preserve"
   sodipodi:docname="W.svg"
   inkscape:version="0.92.3 (2405546, 2018-03-11)"><metadata
   id="metadata10009"><rdf:RDF><cc:Work
       rdf:about=""><dc:format>image/svg+xml</dc:format><dc:type
         rdf:resource="http://purl.org/dc/dcmitype/StillImage" /><dc:title></dc:title></cc:Work></rdf:RDF></metadata><defs
   id="defs10007" /><sodipodi:namedview
   pagecolor="#ffffff"
   bordercolor="#666666"
   borderopacity="1"
   objecttolerance="10"
   gridtolerance="10"
   guidetolerance="10"
   inkscape:pageopacity="0"
   inkscape:pageshadow="2"
   inkscape:window-width="681"
   inkscape:window-height="480"
   id="namedview10005"
   showgrid="false"
   inkscape:zoom="0.9254902"
   inkscape:cx="127.5"
   inkscape:cy="127.5"
   inkscape:window-x="0"
   inkscape:window-y="0"
   inkscape:window-maximized="0"
   inkscape:current-layer="abc" />
<path
   d="m 107.4,135 c -4.6,0 -8.8,-0.9 -12.4,-2.6 -4,-1.9 -6.5,-4.7 -7.4,-8.3 L 81.1,94.4 74.6,124 c -0.9,3.7 -3.4,6.5 -7.4,8.4 -3.6,1.7 -7.8,2.6 -12.4,2.6 -4.6,0 -8.8,-0.9 -12.4,-2.6 -4,-1.8 -6.6,-4.6 -7.7,-8.1 L 0.5,19.4 C 0.2,18.5 0,17.5 0,16.4 0,12.7 2.3,9.5 6.8,6.8 c 4.1,-2.4 8.5,-3.6 13,-3.6 7.5,0 10.1,3.7 11,6.8 L 54.3,89.1 65.7,40.2 c 0.6,-2.9 2.6,-5.2 5.8,-6.8 2.9,-1.4 6.1,-2.2 9.5,-2.2 3.5,0 6.7,0.7 9.5,2.2 3.2,1.6 5.2,3.9 5.8,6.9 L 107.7,89.2 131.2,10 c 0.8,-3.1 3.5,-6.8 11,-6.8 4.6,0 8.9,1.2 13,3.6 4.5,2.7 6.8,5.9 6.8,9.6 0,1.1 -0.2,2.1 -0.5,3 l -34.2,104.9 c -1.3,3.6 -3.9,6.3 -7.8,8.1 -3.3,1.7 -7.5,2.6 -12.1,2.6 z M 81.1,80.3 v 0 c 1.2,0 2.2,0.8 2.4,2 l 8.9,40.8 c 0.5,2.1 2,3.7 4.6,4.9 3,1.4 6.4,2.1 10.3,2.1 3.8,0 7.3,-0.7 10.2,-2.1 2.7,-1.3 4.4,-3 5.2,-5.2 L 156.9,18 c 0.2,-0.5 0.2,-0.9 0.2,-1.5 0,-1.8 -1.5,-3.5 -4.4,-5.2 -3.3,-1.9 -6.9,-2.9 -10.5,-2.9 -5.3,0 -6,2.3 -6.2,3.2 l -26.2,88.3 c -0.3,1.1 -1.4,1.8 -2.5,1.8 -1.1,0 -2.1,-0.8 -2.4,-1.9 L 91.6,41.4 c -0.3,-1.5 -1.3,-2.6 -3.2,-3.5 -2.2,-1.1 -4.6,-1.6 -7.3,-1.6 -2.7,0 -5.1,0.5 -7.3,1.6 -1.8,0.9 -2.8,2 -3.1,3.4 L 57.1,99.5 c -0.3,1.1 -1.2,1.9 -2.4,1.9 -1.1,0 -2.1,-0.7 -2.5,-1.8 L 26.1,11.4 C 25.8,10.5 25.2,8.2 19.9,8.2 16.2,8.2 12.7,9.2 9.4,11.1 6.5,12.8 5,14.6 5,16.3 c 0,0.5 0.1,1 0.2,1.4 l 34.2,104.9 c 0.7,2.2 2.4,3.9 5,5.1 3,1.4 6.4,2.1 10.3,2.1 3.9,0 7.3,-0.7 10.3,-2.1 2.6,-1.2 4.1,-2.8 4.6,-4.9 l 8.9,-40.7 c 0.4,-1 1.4,-1.8 2.6,-1.8 z"
   id="path9984"
   inkscape:connector-curvature="0"
   style="fill:#00457c" />









</svg>