<?xml version="1.0" encoding="UTF-8" standalone="no"?>
<!-- Generator: Adobe Illustrator 18.0.0, SVG Export Plug-In . SVG Version: 6.00 Build 0)  -->

<svg
   xmlns:dc="http://purl.org/dc/elements/1.1/"
   xmlns:cc="http://creativecommons.org/ns#"
   xmlns:rdf="http://www.w3.org/1999/02/22-rdf-syntax-ns#"
   xmlns:svg="http://www.w3.org/2000/svg"
   xmlns="http://www.w3.org/2000/svg"
   xmlns:sodipodi="http://sodipodi.sourceforge.net/DTD/sodipodi-0.dtd"
   xmlns:inkscape="http://www.inkscape.org/namespaces/inkscape"
   version="1.1"
   id="abc"
   x="0px"
   y="0px"
   width="105"
   height="135"
   viewBox="0 0 105 135"
   enable-background="new 0 0 255 255"
   xml:space="preserve"
   sodipodi:docname="X.svg"
   inkscape:version="0.92.3 (2405546, 2018-03-11)"><metadata
   id="metadata10127"><rdf:RDF><cc:Work
       rdf:about=""><dc:format>image/svg+xml</dc:format><dc:type
         rdf:resource="http://purl.org/dc/dcmitype/StillImage" /><dc:title></dc:title></cc:Work></rdf:RDF></metadata><defs
   id="defs10125" /><sodipodi:namedview
   pagecolor="#ffffff"
   bordercolor="#666666"
   borderopacity="1"
   objecttolerance="10"
   gridtolerance="10"
   guidetolerance="10"
   inkscape:pageopacity="0"
   inkscape:pageshadow="2"
   inkscape:window-width="681"
   inkscape:window-height="480"
   id="namedview10123"
   showgrid="false"
   inkscape:zoom="0.9254902"
   inkscape:cx="-37.817797"
   inkscape:cy="147.60482"
   inkscape:window-x="0"
   inkscape:window-y="0"
   inkscape:window-maximized="0"
   inkscape:current-layer="abc" />
<path
   d="m 83.3,135 c -4.2,0 -7,-1.4 -8.5,-4 l -22.9,-39 -23,39 c -1.7,2.7 -4.5,4 -8.5,4 -4.5,0 -9,-1.5 -13.4,-4.5 -4.7,-3.2 -7,-7 -7,-11.3 0,-1.9 0.6,-4 1.9,-6.1 L 30.8,68.4 3.1,24.1 C 1.7,21.9 1,19.6 1,17.4 1,13.1 3.3,9.4 7.8,6.4 12,3.6 16.4,2.2 20.9,2.2 c 4.7,0 8.2,2 10.3,5.8 L 51.9,44.1 72.5,7.9 c 2,-3.7 5.6,-5.7 10.3,-5.7 4.5,0 8.9,1.4 13.1,4.2 4.5,3 6.8,6.7 6.8,11 0,2.2 -0.7,4.4 -2.1,6.7 l -27.7,44.4 28.9,44.6 c 1.3,2.2 2,4.2 2,6.2 0,4.3 -2.4,8.1 -7,11.3 -4.5,2.9 -9,4.4 -13.5,4.4 z M 51.8,84.6 c 0.9,0 1.7,0.5 2.2,1.2 l 25.1,42.7 c 0.6,1 2,1.5 4.2,1.5 3.5,0 7,-1.2 10.5,-3.6 3.3,-2.2 4.8,-4.6 4.8,-7.1 0,-1 -0.4,-2.2 -1.2,-3.5 L 67.8,69.9 c -0.5,-0.8 -0.5,-1.9 0,-2.7 L 96.3,21.4 c 0.9,-1.4 1.3,-2.8 1.3,-4 0,-2.6 -1.5,-4.8 -4.6,-6.9 -3.4,-2.2 -6.8,-3.4 -10.3,-3.4 -2.9,0 -4.7,1 -5.9,3.2 l -22.9,40 c -0.4,0.8 -1.3,1.3 -2.2,1.3 -0.9,0 -1.7,-0.5 -2.2,-1.3 L 26.6,10.4 C 25.4,8.2 23.5,7.2 20.7,7.2 c -3.5,0 -6.9,1.1 -10.3,3.4 -3.1,2 -4.6,4.3 -4.6,6.9 0,1.2 0.5,2.6 1.3,4 l 28.6,45.8 c 0.5,0.8 0.5,1.9 0,2.7 L 5.9,115.9 c -0.7,1.2 -1.1,2.4 -1.1,3.5 0,2.6 1.6,4.9 4.8,7.1 3.5,2.4 7.1,3.6 10.5,3.6 3.3,0 4,-1.2 4.2,-1.6 L 49.4,85.9 c 0.7,-0.9 1.5,-1.3 2.4,-1.3 z"
   id="path10108"
   inkscape:connector-curvature="0"
   style="fill:#00457c" />






</svg>