<?xml version="1.0" encoding="UTF-8" standalone="no"?>
<!-- Generator: Adobe Illustrator 18.0.0, SVG Export Plug-In . SVG Version: 6.00 Build 0)  -->

<svg
   xmlns:dc="http://purl.org/dc/elements/1.1/"
   xmlns:cc="http://creativecommons.org/ns#"
   xmlns:rdf="http://www.w3.org/1999/02/22-rdf-syntax-ns#"
   xmlns:svg="http://www.w3.org/2000/svg"
   xmlns="http://www.w3.org/2000/svg"
   xmlns:sodipodi="http://sodipodi.sourceforge.net/DTD/sodipodi-0.dtd"
   xmlns:inkscape="http://www.inkscape.org/namespaces/inkscape"
   version="1.1"
   id="abc"
   x="0px"
   y="0px"
   width="105"
   height="135"
   viewBox="0 0 105 135"
   enable-background="new 0 0 255 255"
   xml:space="preserve"
   sodipodi:docname="Y.svg"
   inkscape:version="0.92.3 (2405546, 2018-03-11)"><metadata
   id="metadata10198"><rdf:RDF><cc:Work
       rdf:about=""><dc:format>image/svg+xml</dc:format><dc:type
         rdf:resource="http://purl.org/dc/dcmitype/StillImage" /><dc:title></dc:title></cc:Work></rdf:RDF></metadata><defs
   id="defs10196" /><sodipodi:namedview
   pagecolor="#ffffff"
   bordercolor="#666666"
   borderopacity="1"
   objecttolerance="10"
   gridtolerance="10"
   guidetolerance="10"
   inkscape:pageopacity="0"
   inkscape:pageshadow="2"
   inkscape:window-width="681"
   inkscape:window-height="480"
   id="namedview10194"
   showgrid="false"
   inkscape:zoom="0.9254902"
   inkscape:cx="127.5"
   inkscape:cy="127.5"
   inkscape:window-x="808"
   inkscape:window-y="303"
   inkscape:window-maximized="0"
   inkscape:current-layer="abc" />
<path
   d="m 52.5,135 c -4.1,0 -7.7,-0.8 -10.7,-2.5 -4.3,-2.4 -5.3,-5.8 -5.3,-8.3 V 81 c 0,-0.6 -0.2,-0.8 -0.3,-1 0,0 0,-0.1 -0.1,-0.1 L 0.7,20.9 C 0.7,20.8 0.6,20.8 0.6,20.7 0.2,19.9 0,18.9 0,17.7 c 0,-4 2.5,-7.3 7.4,-9.9 4.4,-2.4 8.9,-3.6 13.3,-3.6 2.6,0 4.6,0.5 6.1,1.6 1.3,1 2.6,2.5 3.8,4.7 L 52.5,50.7 74.2,10.5 c 2.1,-4.1 5.6,-6.3 9.9,-6.3 4.4,0 8.9,1.2 13.3,3.6 4.9,2.6 7.4,6 7.4,9.9 0,1.2 -0.2,2.2 -0.6,3 0,0.1 -0.1,0.1 -0.1,0.2 l -35.4,59 c 0,0 0,0.1 -0.1,0.1 -0.1,0.2 -0.3,0.5 -0.3,1 v 43.2 c 0,2.5 -0.9,5.9 -5.3,8.3 -2.8,1.6 -6.4,2.5 -10.5,2.5 z m -12,-57.7 c 0.7,1.1 1.1,2.4 1.1,3.7 v 43.2 c 0,1.2 0.3,2.6 2.6,3.9 2.3,1.2 5,1.8 8.3,1.8 3.2,0 6,-0.6 8.3,-1.8 2.3,-1.3 2.6,-2.8 2.6,-3.9 V 81 c 0,-1.4 0.4,-2.7 1.1,-3.7 L 99.8,18.5 c 0,-0.1 0.1,-0.3 0.1,-0.7 0,-2 -1.6,-3.8 -4.8,-5.5 -3.7,-2 -7.4,-3 -10.9,-3 -2.5,0 -4.2,1.2 -5.5,3.6 L 54.8,57.1 c -0.4,0.8 -1.3,1.3 -2.2,1.3 0,0 0,0 0,0 -0.9,0 -1.8,-0.5 -2.2,-1.3 L 26.2,12.9 c -1,-1.8 -1.9,-2.7 -2.4,-3 -0.3,-0.2 -1.2,-0.6 -3.2,-0.6 -3.6,0 -7.3,1 -10.9,3 -3.2,1.7 -4.8,3.6 -4.8,5.5 0,0.4 0,0.7 0.1,0.7 z"
   id="path10179"
   inkscape:connector-curvature="0"
   style="fill:#00457c" />






</svg>