<?xml version="1.0" encoding="UTF-8" standalone="no"?>
<!-- Generator: Adobe Illustrator 18.0.0, SVG Export Plug-In . SVG Version: 6.00 Build 0)  -->

<svg
   xmlns:dc="http://purl.org/dc/elements/1.1/"
   xmlns:cc="http://creativecommons.org/ns#"
   xmlns:rdf="http://www.w3.org/1999/02/22-rdf-syntax-ns#"
   xmlns:svg="http://www.w3.org/2000/svg"
   xmlns="http://www.w3.org/2000/svg"
   xmlns:sodipodi="http://sodipodi.sourceforge.net/DTD/sodipodi-0.dtd"
   xmlns:inkscape="http://www.inkscape.org/namespaces/inkscape"
   version="1.1"
   id="abc"
   x="0px"
   y="0px"
   width="105"
   height="135"
   viewBox="0 0 105 135"
   enable-background="new 0 0 255 255"
   xml:space="preserve"
   sodipodi:docname="Z.svg"
   inkscape:version="0.92.3 (2405546, 2018-03-11)"><metadata
   id="metadata10281"><rdf:RDF><cc:Work
       rdf:about=""><dc:format>image/svg+xml</dc:format><dc:type
         rdf:resource="http://purl.org/dc/dcmitype/StillImage" /><dc:title></dc:title></cc:Work></rdf:RDF></metadata><defs
   id="defs10279" /><sodipodi:namedview
   pagecolor="#ffffff"
   bordercolor="#666666"
   borderopacity="1"
   objecttolerance="10"
   gridtolerance="10"
   guidetolerance="10"
   inkscape:pageopacity="0"
   inkscape:pageshadow="2"
   inkscape:window-width="681"
   inkscape:window-height="480"
   id="namedview10277"
   showgrid="false"
   inkscape:zoom="0.9254902"
   inkscape:cx="127.5"
   inkscape:cy="127.5"
   inkscape:window-x="0"
   inkscape:window-y="0"
   inkscape:window-maximized="0"
   inkscape:current-layer="abc" />
<path
   d="M 83.5,135 H 10.2 C 3.7,135 0,131.5 0,125.4 0,122 1.1,118.4 3.3,114.7 L 49.7,32.6 H 14 C 10.6,32.6 7.8,31 5.9,28 4.2,25.3 3.4,22.1 3.4,18.4 3.4,14.7 4.2,11.5 5.8,8.9 7.6,5.9 10.5,4.2 14,4.2 h 66.4 c 6.5,0 10.2,3.5 10.2,9.6 0,3.2 -1.1,6.8 -3.2,10.7 L 41,106.6 h 42.5 c 2.3,0 5.5,0.8 8,4.8 1.7,2.8 2.6,6 2.6,9.4 0,3.4 -0.9,6.6 -2.6,9.4 -2.5,3.9 -5.8,4.8 -8,4.8 z M 14,9.2 c -1.8,0 -3,0.7 -3.9,2.2 -1.1,1.9 -1.7,4.2 -1.7,7 0,2.7 0.6,5.1 1.8,6.9 1,1.6 2.2,2.3 3.8,2.3 h 39.9 c 0.9,0 1.7,0.5 2.2,1.2 0.4,0.8 0.5,1.7 0,2.5 L 7.6,117.1 c -1.7,3 -2.6,5.7 -2.6,8.2 0,2.7 0.9,4.6 5.2,4.6 h 73.3 c 1,0 2.4,-0.3 3.7,-2.4 1.3,-2 1.9,-4.2 1.9,-6.8 0,-2.6 -0.6,-4.7 -1.9,-6.8 -1.3,-2.1 -2.7,-2.4 -3.7,-2.4 H 36.7 c -0.9,0 -1.7,-0.5 -2.2,-1.2 -0.4,-0.8 -0.5,-1.7 0,-2.5 L 83,22 c 1.7,-3.1 2.6,-5.9 2.6,-8.2 0,-2.7 -0.9,-4.6 -5.2,-4.6 z"
   id="path10256"
   inkscape:connector-curvature="0"
   style="fill:#00457c" />









</svg>