<svg xmlns="http://www.w3.org/2000/svg" width="500" height="110" viewBox="0 0 132.292 29.104" fill="#1791e7"><path d="M18.878 26.474h-5.65c-.74 0-1.352-.185-1.834-.537-.648-.482-.796-1.037-.796-1.426V4.21c0-.4.13-.945.796-1.426.482-.352 1.093-.537 1.834-.537h5.63c2.482 0 4.5.648 6 1.926 1.52 1.296 2.297 3.334 2.297 6.056v8.26c0 2.723-.778 4.76-2.297 6.056-1.482 1.278-3.5 1.926-5.982 1.926zm-5.65-23.3c-.537 0-.963.1-1.278.352-.37.278-.426.52-.426.685v20.3c0 .167.037.407.426.685.315.24.76.352 1.278.352h5.63c2.26 0 4.075-.574 5.408-1.704 1.315-1.1 1.963-2.908 1.963-5.353v-8.24c0-2.445-.667-4.24-1.963-5.353-1.334-1.13-3.15-1.704-5.408-1.704h-5.63zm5.65 18.965h-2.834a.46.46 0 0 1-.463-.463V7.046a.46.46 0 0 1 .463-.463h2.834c1.52 0 3.334.63 3.334 3.65v8.26c0 3-1.815 3.65-3.334 3.65zm-2.37-.926h2.37c1.648 0 2.408-.87 2.408-2.723v-8.24c0-1.852-.76-2.723-2.408-2.723h-2.37zm20.798 5.182c-2.463 0-4.464-.648-5.964-1.926-1.52-1.296-2.297-3.334-2.297-6.056V9.967c0-2.723.778-4.76 2.297-6.056 1.5-1.278 3.52-1.926 5.964-1.926 2.482 0 4.5.648 6 1.926 1.52 1.296 2.297 3.334 2.297 6.056v8.445c0 2.723-.778 4.76-2.297 6.056-1.5 1.278-3.52 1.926-6 1.926zm0-23.484c-2.24 0-4.038.574-5.37 1.704-1.315 1.1-1.963 2.908-1.963 5.353v8.445c0 2.445.667 4.24 1.963 5.353 1.334 1.13 3.13 1.704 5.37 1.704 2.26 0 4.075-.574 5.408-1.704 1.315-1.1 1.963-2.908 1.963-5.353V9.967c0-2.445-.667-4.24-1.963-5.353-1.334-1.13-3.15-1.704-5.408-1.704zm0 19.15c-1.5 0-3.297-.63-3.297-3.65V9.967c0-3.02 1.797-3.65 3.297-3.65 1.52 0 3.334.63 3.334 3.65v8.445c0 3.02-1.815 3.65-3.334 3.65zm0-14.817c-1.6 0-2.37.87-2.37 2.723v8.445c0 1.9.74 2.723 2.37 2.723 1.648 0 2.408-.87 2.408-2.723V9.967c0-1.852-.76-2.723-2.408-2.723zm18.257 19.15c-2.37 0-4.334-.648-5.834-1.926-1.52-1.296-2.278-3.334-2.278-6.056V9.967c0-2.723.76-4.76 2.278-6.056 1.5-1.278 3.445-1.926 5.834-1.926 2.426 0 4.464.593 6.02 1.778 1.6 1.204 2.426 2.908 2.426 5.02 0 1.074-.24 1.797-.74 2.222-.482.407-1.204.6-2.223.6-2.334 0-2.9-1.056-2.945-1.926-.056-1.685-.796-2.426-2.37-2.426-1.648 0-2.408.87-2.408 2.723v8.427c0 1.852.778 2.723 2.445 2.723.52 0 .945-.074 1.278-.24.296-.148.5-.352.63-.648l.315-.9c.056-.24.093-.574.13-1 .074-.87.648-1.908 2.908-1.908 1.037 0 1.778.204 2.24.6.5.426.74 1.148.74 2.223 0 2.204-.815 3.963-2.426 5.24-1.556 1.24-3.593 1.87-6.02 1.87zm0-23.484c-2.148 0-3.908.574-5.223 1.704-1.296 1.1-1.963 2.908-1.963 5.353v8.445c0 2.445.667 4.24 1.963 5.353 1.315 1.13 3.074 1.704 5.223 1.704 2.223 0 4.056-.574 5.464-1.685 1.4-1.1 2.074-2.574 2.074-4.52 0-.76-.148-1.278-.407-1.52-.204-.167-.648-.4-1.648-.4-1.908 0-1.963.778-2 1.074-.037.482-.093.833-.148 1.1-.056.296-.185.63-.37 1.056a2.16 2.16 0 0 1-1.074 1.11c-.463.222-1.02.333-1.685.333-1.537 0-3.37-.63-3.37-3.65v-8.44c0-3.02 1.815-3.65 3.334-3.65 2.093 0 3.223 1.148 3.297 3.315.02.278.074 1.056 2.02 1.056.76 0 1.315-.13 1.6-.4.278-.24.407-.76.407-1.52 0-1.834-.667-3.24-2.056-4.278S57.785 2.9 55.563 2.9zm23.995 23.632c-.926 0-1.648-.4-2.1-1.148l-5.093-7.723-.852 1.093v5.612c0 .463-.167 1.093-.982 1.537-.556.296-1.222.463-1.982.463s-1.426-.148-1.982-.463c-.796-.445-.982-1.074-.982-1.537V4.096c0-.463.167-1.1.982-1.52.556-.296 1.222-.426 1.963-.426.76 0 1.408.148 1.963.426.815.426.982 1.056.982 1.52v6.186l5.112-7.242a1.95 1.95 0 0 1 1.685-.889c.76 0 1.52.315 2.26.926.76.63 1.13 1.334 1.13 2.093a1.98 1.98 0 0 1-.407 1.222l-.02.02-5.02 6.297 6.408 9.816c.222.352.333.722.333 1.074 0 .76-.37 1.445-1.13 2.056-.648.593-1.445.9-2.26.9zM72.4 16.412c.167 0 .296.093.4.204l5.445 8.28c.296.5.722.722 1.334.722s1.185-.222 1.74-.685c.537-.426.778-.87.778-1.352a1.11 1.11 0 0 0-.185-.593l-6.575-10.075c-.1-.167-.093-.4.02-.537L80.57 5.82c.148-.222.222-.445.222-.685 0-.482-.26-.926-.815-1.4s-1.1-.704-1.667-.704c-.4 0-.685.167-.926.5l-5.945 8.464a.44.44 0 0 1-.519.167c-.185-.056-.315-.24-.315-.445v-7.63c0-.204-.056-.482-.482-.704s-.945-.333-1.537-.333-1.1.1-1.537.333-.482.5-.482.704V24.36c0 .222.056.482.482.722.426.222.926.333 1.537.333.593 0 1.1-.1 1.537-.333.426-.24.5-.52.5-.722V18.6c0-.1.037-.204.093-.278L72.05 16.6c.074-.13.204-.185.352-.185zm26.163 9.925H87.228c-.685 0-1.278-.167-1.778-.463a1.72 1.72 0 0 1-.852-1.52V4.112c0-.648.296-1.167.852-1.52.5-.315 1.093-.463 1.778-.463h11.335a1.7 1.7 0 0 1 1.519.87c.296.5.444 1.074.444 1.74 0 .704-.167 1.315-.463 1.815-.352.556-.87.852-1.5.852h-8.075v4.464h4.315a1.72 1.72 0 0 1 1.482.778c.315.463.482 1.02.482 1.63 0 .574-.148 1.1-.463 1.556-.333.52-.852.778-1.5.778H90.49v4.482h8.075c.63 0 1.148.296 1.5.852.315.5.463 1.1.463 1.815 0 .648-.148 1.24-.444 1.74-.352.52-.87.833-1.52.833zM87.2 3.037c-.5 0-.945.1-1.278.333-.296.185-.426.407-.426.74v20.225c0 .333.13.556.426.74.352.222.778.333 1.278.333h11.335c.333 0 .556-.13.722-.407a2.49 2.49 0 0 0 .315-1.259c0-.52-.1-.963-.333-1.315-.185-.296-.407-.426-.704-.426h-8.538a.46.46 0 0 1-.463-.463V16.13a.46.46 0 0 1 .463-.463h4.778c.333 0 .556-.1.722-.37a1.85 1.85 0 0 0 .296-1.056 1.96 1.96 0 0 0-.315-1.111.81.81 0 0 0-.722-.37h-4.778a.46.46 0 0 1-.463-.463v-5.4a.46.46 0 0 1 .463-.463h8.538c.315 0 .52-.13.704-.426.222-.352.333-.796.333-1.315 0-.5-.1-.908-.315-1.26-.167-.278-.4-.407-.722-.407zm28.863 23.523c-.908 0-1.6-.407-2-1.167l-4.24-8.223h-1.352v7.223c0 .463-.167 1.093-.982 1.537-.556.296-1.222.463-1.982.463s-1.426-.148-1.982-.463c-.796-.445-.982-1.074-.982-1.537V4.112c0-.52.185-.982.556-1.37s.852-.593 1.426-.593h6.593c5.5 0 8.297 2.445 8.297 7.28 0 3.297-1.24 5.538-3.667 6.686l3.63 6.575a1.45 1.45 0 0 1 .222.815c0 .76-.4 1.463-1.167 2.1-.704.63-1.52.945-2.37.945zm-8.057-10.335h2.1c.167 0 .333.093.407.26l4.37 8.483c.24.463.6.667 1.185.667.63 0 1.24-.24 1.815-.722.556-.463.833-.926.833-1.4 0-.13-.02-.24-.074-.296-.02-.018-.02-.037-.037-.037l-3.9-7.038a.56.56 0 0 1-.037-.389c.037-.13.148-.222.26-.278 2.4-.926 3.556-2.908 3.556-6.038 0-4.278-2.408-6.353-7.37-6.353h-6.575c-.315 0-.574.093-.76.296a.98.98 0 0 0-.296.722v20.262c0 .222.056.482.482.722.426.222.926.333 1.537.333.593 0 1.1-.1 1.537-.333.426-.24.482-.52.482-.722v-7.686a.47.47 0 0 1 .463-.463zm3.15-2.9h-3.15a.46.46 0 0 1-.463-.463V6.945a.46.46 0 0 1 .463-.463h3.15c1.056 0 1.87.278 2.445.815.593.537.9 1.426.9 2.6s-.296 2.074-.87 2.6-1.408.815-2.463.815zm-2.686-.926h2.686c.815 0 1.426-.185 1.815-.556s.593-1.02.593-1.945-.204-1.574-.593-1.945-1.02-.556-1.815-.556h-2.686z"/></svg>