<?xml version="1.0" encoding="utf-8"?>
<!-- Generator: Adobe Illustrator 19.1.0, SVG Export Plug-In . SVG Version: 6.00 Build 0)  -->
<svg version="1.1" id="Layer_1" xmlns="http://www.w3.org/2000/svg" xmlns:xlink="http://www.w3.org/1999/xlink" x="0px" y="0px"
	 viewBox="0 0 325 254.4" style="enable-background:new 0 0 325 254.4;" xml:space="preserve">
<desc>ROC 곡선은 다양한 분류 임계값의 참 양성(TP) 비율과 허위 양성(FP) 비율을 보여주는 하나의 곡선을 표시합니다.</desc>
<style type="text/css">
	.koroc-st0{opacity:0;fill-rule:evenodd;clip-rule:evenodd;}
	.koroc-st1{fill:none;stroke:#424242;stroke-width:3;stroke-linejoin:round;stroke-miterlimit:14.3356;}
	.koroc-st2{fill:none;stroke:#1155CC;stroke-width:3;stroke-linejoin:round;stroke-miterlimit:14.3356;stroke-dasharray:12,9;}
	.koroc-st3{font-family:'Arial-BoldMT';}
	.koroc-st4{font-size:11px;}
	.koroc-st5{font-family:'AdobeMyungjoStd-Medium-KSCpc-EUC-H';}
	.koroc-st6{fill-rule:evenodd;clip-rule:evenodd;fill:#FFF2CC;}
	.koroc-st7{fill:none;stroke:#424242;stroke-width:0.75;stroke-linejoin:round;stroke-miterlimit:14.3356;}
	.koroc-st8{fill:none;}
	.koroc-st9{font-family:'ArialMT';}
</style>
<line class="koroc-st0" x1="32.9" y1="9.5" x2="32.9" y2="228.1"/>
<line class="koroc-st1" x1="32.9" y1="9.5" x2="32.9" y2="228.1"/>
<line class="koroc-st0" x1="32.9" y1="228.1" x2="299.4" y2="228.1"/>
<line class="koroc-st1" x1="32.9" y1="228.1" x2="299.4" y2="228.1"/>
<path class="koroc-st0" d="M32.9,227.6c1.4-7.7,3.2-29.6,8.3-46.3s14.3-40.3,22.3-53.9c8-13.6,15.4-18.6,25.9-27.7s25.4-18.4,37.3-27.2
	c11.9-8.8,24.5-19.1,34.2-25.7c9.8-6.6,13.6-9.2,24.4-14.1c10.8-4.9,21.4-11.5,40.4-15.1c19-3.6,61.3-5.5,73.6-6.5"/>
<path class="koroc-st2" d="M32.9,227.6c1.4-7.7,3.2-29.6,8.3-46.3s14.3-40.3,22.3-53.9c8-13.6,15.4-18.6,25.9-27.7s25.4-18.4,37.3-27.2
	c11.9-8.8,24.5-19.1,34.2-25.7c9.8-6.6,13.6-9.2,24.4-14.1c10.8-4.9,21.4-11.5,40.4-15.1c19-3.6,61.3-5.5,73.6-6.5"/>
<text transform="matrix(1 0 0 1 146.5597 243.9912)"><tspan x="0" y="0" class="koroc-st3 koroc-st4">FP </tspan><tspan x="17.1" y="0" class="koroc-st5 koroc-st4">비율</tspan></text>
<rect y="38.7" class="koroc-st0" width="27.7" height="114.4"/>
<text transform="matrix(0 -1 1 0 17.3099 138.3949)"><tspan x="0" y="0" class="koroc-st3 koroc-st4">TP </tspan><tspan x="17.1" y="0" class="koroc-st5 koroc-st4">비율</tspan></text>
<rect class="koroc-st0" width="27.7" height="22"/>
<text transform="matrix(0 -1 1 0 17.3101 15.2427)" class="koroc-st3 koroc-st4">1</text>
<rect y="216" class="koroc-st0" width="27.7" height="22"/>
<text transform="matrix(0 -1 1 0 17.3101 231.2427)" class="koroc-st3 koroc-st4">0</text>
<rect x="20.9" y="231.1" class="koroc-st0" width="22" height="27.7"/>
<text transform="matrix(1 0 0 1 27.6083 248.4512)" class="koroc-st3 koroc-st4">0</text>
<rect x="284.9" y="231.1" class="koroc-st0" width="22" height="27.7"/>
<text transform="matrix(1 0 0 1 291.6085 248.4512)" class="koroc-st3 koroc-st4">1</text>
<path class="koroc-st6" d="M90.1,131.7L90.1,131.7c0-4.6,3.7-8.3,8.3-8.3h11.9h30.4h62.7c2.2,0,4.3,0.9,5.9,2.4c1.6,1.6,2.4,3.7,2.4,5.9
	v12.5v20.9c0,4.6-3.7,8.3-8.3,8.3h-62.7h-30.4H98.4c-4.6,0-8.3-3.7-8.3-8.3v-20.9l-20.9-19.5L90.1,131.7z"/>
<path class="koroc-st7" d="M90.1,131.7L90.1,131.7c0-4.6,3.7-8.3,8.3-8.3h11.9h30.4h62.7c2.2,0,4.3,0.9,5.9,2.4c1.6,1.6,2.4,3.7,2.4,5.9
	v12.5v20.9c0,4.6-3.7,8.3-8.3,8.3h-62.7h-30.4H98.4c-4.6,0-8.3-3.7-8.3-8.3v-20.9l-20.9-19.5L90.1,131.7z"/>
<path class="koroc-st6" d="M207.4,43.3L207.4,43.3c0-5.2,4.3-9.5,9.5-9.5h9.6l-4.8-12.1l33.4,12.1h57.2c2.5,0,4.9,1,6.7,2.8
	c1.8,1.8,2.8,4.2,2.8,6.7v14.3v23.8c0,5.2-4.3,9.5-9.5,9.5h-57.2h-28.6h-9.6c-5.2,0-9.5-4.3-9.5-9.5V57.6V43.3z"/>
<path class="koroc-st7" d="M207.4,43.3L207.4,43.3c0-5.2,4.3-9.5,9.5-9.5h9.6l-4.8-12.1l33.4,12.1h57.2c2.5,0,4.9,1,6.7,2.8
	c1.8,1.8,2.8,4.2,2.8,6.7v14.3v23.8c0,5.2-4.3,9.5-9.5,9.5h-57.2h-28.6h-9.6c-5.2,0-9.5-4.3-9.5-9.5V57.6V43.3z"/>
<g>
	<rect x="216.9" y="45.9" class="koroc-st8" width="95.6" height="77.5"/>
	<text transform="matrix(1 0 0 1 216.9384 53.8691)"><tspan x="0" y="0" class="koroc-st5 koroc-st4">하나의</tspan><tspan x="33" y="0" class="koroc-st9 koroc-st4"> </tspan><tspan x="36.1" y="0" class="koroc-st5 koroc-st4">결정</tspan><tspan x="58.1" y="0" class="koroc-st9 koroc-st4"> </tspan><tspan x="0" y="13.2" class="koroc-st5 koroc-st4">임계값에서</tspan><tspan x="55" y="13.2" class="koroc-st9 koroc-st4"> TP </tspan><tspan x="75.2" y="13.2" class="koroc-st5 koroc-st4">대</tspan><tspan x="86.2" y="13.2" class="koroc-st9 koroc-st4"> </tspan><tspan x="0" y="26.4" class="koroc-st9 koroc-st4">FP </tspan><tspan x="17.1" y="26.4" class="koroc-st5 koroc-st4">비율</tspan></text>
</g>
<rect x="99.3" y="132" class="koroc-st8" width="103" height="58.5"/>
<text transform="matrix(1 0 0 1 99.2579 139.9971)"><tspan x="0" y="0" class="koroc-st5 koroc-st4">다른</tspan><tspan x="22" y="0" class="koroc-st9 koroc-st4"> </tspan><tspan x="25.1" y="0" class="koroc-st5 koroc-st4">결정</tspan><tspan x="47.1" y="0" class="koroc-st9 koroc-st4"> </tspan><tspan x="0" y="13.2" class="koroc-st5 koroc-st4">임계값에서</tspan><tspan x="55" y="13.2" class="koroc-st9 koroc-st4"> TP </tspan><tspan x="75.2" y="13.2" class="koroc-st5 koroc-st4">대</tspan><tspan x="86.2" y="13.2" class="koroc-st9 koroc-st4"> </tspan><tspan x="0" y="26.4" class="koroc-st9 koroc-st4">FP </tspan><tspan x="17.1" y="26.4" class="koroc-st5 koroc-st4">비율</tspan></text>
</svg>
